%FSLAX36Y36*%
G04 Gerber Fmt 3.6, Leading zero omitted, Abs format (unit inch)*
G04 Created by KiCad (PCBNEW (2014-jul-16 BZR unknown)-product) date Sun 08 Feb 2015 05:52:30 PM PST*
%MOIN*%
G01*
G04 APERTURE LIST*
%ADD10C,0.003937*%
%ADD11C,0.059100*%
%ADD12C,0.078700*%
%ADD13R,0.078700X0.078700*%
%ADD14C,0.060000*%
%ADD15C,0.236220*%
%ADD16R,0.068000X0.068000*%
%ADD17C,0.068000*%
%ADD18R,0.060000X0.060000*%
%ADD19O,0.068000X0.068000*%
%ADD20R,0.055000X0.055000*%
%ADD21C,0.055000*%
%ADD22C,0.035000*%
%ADD23C,0.008000*%
%ADD24C,0.040000*%
%ADD25C,0.010000*%
G04 APERTURE END LIST*
D10*
D11*
X6575000Y-5575000D03*
X6675000Y-5575000D03*
X6675000Y-5075000D03*
X6575000Y-5075000D03*
X4900000Y-5000000D03*
X5000000Y-5000000D03*
X4900000Y-5550000D03*
X5000000Y-5550000D03*
X4425000Y-4600000D03*
X4525000Y-4600000D03*
X4425000Y-4950000D03*
X4525000Y-4950000D03*
X4775000Y-5725000D03*
X4875000Y-5725000D03*
X4425000Y-5325000D03*
X4525000Y-5325000D03*
X6875000Y-5575000D03*
X6775000Y-5575000D03*
X6975000Y-5575000D03*
X7075000Y-5575000D03*
D12*
X5025000Y-5725000D03*
D13*
X5425000Y-5725000D03*
D14*
X7700000Y-5350000D03*
X7700000Y-5450000D03*
D15*
X4133858Y-4133858D03*
X7677165Y-4133858D03*
X4133858Y-5708661D03*
X7677165Y-5708661D03*
D16*
X4250000Y-5400000D03*
D17*
X4150000Y-5400000D03*
X4050000Y-5400000D03*
D18*
X4113780Y-4721260D03*
D14*
X4213780Y-4721260D03*
X4113780Y-4821260D03*
X4213780Y-4821260D03*
X4113780Y-4921260D03*
X4213780Y-4921260D03*
X4113780Y-5021260D03*
X4213780Y-5021260D03*
X4113780Y-5121260D03*
X4213780Y-5121260D03*
D16*
X4650000Y-4025000D03*
D17*
X4750000Y-4025000D03*
X4850000Y-4025000D03*
X4950000Y-4025000D03*
X5050000Y-4025000D03*
X5150000Y-4025000D03*
D16*
X5350000Y-4200000D03*
X6250000Y-4200000D03*
D17*
X5350000Y-4300000D03*
X5350000Y-4400000D03*
X5350000Y-4500000D03*
X5350000Y-4600000D03*
X5350000Y-4700000D03*
X5350000Y-4800000D03*
X5350000Y-4900000D03*
X6250000Y-4300000D03*
X6250000Y-4400000D03*
X6250000Y-4500000D03*
X6250000Y-4600000D03*
X6250000Y-4700000D03*
X6250000Y-4800000D03*
X6250000Y-4900000D03*
D16*
X6475000Y-4200000D03*
X7375000Y-4200000D03*
D17*
X6475000Y-4300000D03*
X6475000Y-4400000D03*
X6475000Y-4500000D03*
X6475000Y-4600000D03*
X6475000Y-4700000D03*
X6475000Y-4800000D03*
X6475000Y-4900000D03*
X7375000Y-4300000D03*
X7375000Y-4400000D03*
X7375000Y-4500000D03*
X7375000Y-4600000D03*
X7375000Y-4700000D03*
X7375000Y-4800000D03*
X7375000Y-4900000D03*
D16*
X7675000Y-4975000D03*
D19*
X7775000Y-4975000D03*
X7675000Y-5075000D03*
X7775000Y-5075000D03*
X7675000Y-5175000D03*
X7775000Y-5175000D03*
D17*
X4500000Y-4025000D03*
X4500000Y-4425000D03*
X4675000Y-4625000D03*
X4675000Y-4225000D03*
X4650000Y-5125000D03*
X4650000Y-5525000D03*
X5600000Y-5600000D03*
X5600000Y-5200000D03*
X6000000Y-5025000D03*
X6000000Y-4625000D03*
X5225000Y-5600000D03*
X5225000Y-5200000D03*
X5375000Y-5600000D03*
X5375000Y-5200000D03*
X5750000Y-5600000D03*
X5750000Y-5200000D03*
X7550000Y-4825000D03*
X7550000Y-4425000D03*
X5800000Y-5025000D03*
X5800000Y-4625000D03*
D13*
X7750000Y-4778000D03*
D12*
X7750000Y-4522000D03*
D20*
X4800000Y-4225000D03*
D21*
X4800000Y-4325000D03*
X4800000Y-4425000D03*
X4800000Y-4525000D03*
X4800000Y-4625000D03*
X4800000Y-4725000D03*
X4800000Y-4825000D03*
X5100000Y-4825000D03*
X5100000Y-4725000D03*
X5100000Y-4625000D03*
X5100000Y-4525000D03*
X5100000Y-4425000D03*
X5100000Y-4325000D03*
X5100000Y-4225000D03*
D14*
X4425000Y-4725000D03*
X4500000Y-4775000D03*
X4425000Y-4825000D03*
D20*
X4800000Y-5125000D03*
D21*
X4800000Y-5225000D03*
X4800000Y-5325000D03*
X4800000Y-5425000D03*
X5100000Y-5425000D03*
X5100000Y-5325000D03*
X5100000Y-5225000D03*
X5100000Y-5125000D03*
D14*
X4425000Y-5075000D03*
X4500000Y-5125000D03*
X4425000Y-5175000D03*
D21*
X6075000Y-5475000D03*
X6175000Y-5475000D03*
X6275000Y-5475000D03*
X6375000Y-5475000D03*
X6475000Y-5475000D03*
X6575000Y-5475000D03*
X6675000Y-5475000D03*
X6775000Y-5475000D03*
X6875000Y-5475000D03*
X6975000Y-5475000D03*
X7075000Y-5475000D03*
X7175000Y-5475000D03*
X7275000Y-5475000D03*
D20*
X5975000Y-5475000D03*
D21*
X7275000Y-5175000D03*
X7175000Y-5175000D03*
X7075000Y-5175000D03*
X6975000Y-5175000D03*
X6875000Y-5175000D03*
X6775000Y-5175000D03*
X6675000Y-5175000D03*
X6575000Y-5175000D03*
X6475000Y-5175000D03*
X6375000Y-5175000D03*
X6275000Y-5175000D03*
X6175000Y-5175000D03*
X6075000Y-5175000D03*
X5975000Y-5175000D03*
D11*
X6928900Y-5750000D03*
X7121100Y-5750000D03*
D22*
X5250000Y-4375000D03*
X6900000Y-5350000D03*
X7500000Y-5350000D03*
X7350000Y-5350000D03*
X7500000Y-5175000D03*
X7500000Y-5025000D03*
X7200000Y-5350000D03*
X7475000Y-4750000D03*
X7300000Y-4750000D03*
X6625000Y-4750000D03*
X6950000Y-4750000D03*
X6825000Y-4600000D03*
X6700000Y-4950000D03*
X6825000Y-4500000D03*
X6150000Y-5000000D03*
X6325000Y-5050000D03*
X6050000Y-4350000D03*
X5125000Y-5600000D03*
X5125000Y-5775000D03*
X5750000Y-5750000D03*
X5350000Y-5475000D03*
X4525000Y-5500000D03*
X4350000Y-5475000D03*
X4525000Y-5225000D03*
X4350000Y-5250000D03*
X4300000Y-4825000D03*
X4700000Y-5450000D03*
X4675000Y-5325000D03*
X5375000Y-5050000D03*
X5175000Y-4950000D03*
X5225000Y-4800000D03*
X5575000Y-5100000D03*
X5200000Y-4525000D03*
X4975000Y-4700000D03*
X4675000Y-4750000D03*
X4550000Y-4200000D03*
X5250000Y-4025000D03*
X5100000Y-4150000D03*
X4950000Y-4150000D03*
X5625000Y-4350000D03*
X5675000Y-4625000D03*
X5625000Y-5275000D03*
X5775000Y-5375000D03*
X5800000Y-4900000D03*
X5900000Y-5000000D03*
X5900000Y-5175000D03*
X5950000Y-5375000D03*
X6200000Y-5375000D03*
X6575000Y-5375000D03*
X5225000Y-4625000D03*
X5400000Y-4650000D03*
X7200000Y-4875000D03*
X7025000Y-4650000D03*
X6675000Y-4600000D03*
D23*
X6875000Y-5175000D02*
X6875000Y-4900000D01*
X6875000Y-4900000D02*
X6475000Y-4500000D01*
X7675000Y-5075000D02*
X7625000Y-5025000D01*
X7625000Y-4500000D02*
X7550000Y-4425000D01*
X7625000Y-5025000D02*
X7625000Y-4500000D01*
D24*
X7500000Y-5025000D02*
X7500000Y-5175000D01*
X7500000Y-5175000D02*
X7500000Y-5350000D01*
X7375000Y-4900000D02*
X7475000Y-4800000D01*
X7475000Y-4800000D02*
X7475000Y-4750000D01*
X7300000Y-4825000D02*
X7375000Y-4900000D01*
X7300000Y-4750000D02*
X7300000Y-4825000D01*
X6825000Y-4500000D02*
X6825000Y-4600000D01*
X6625000Y-4875000D02*
X6625000Y-4750000D01*
X6950000Y-4750000D02*
X6950000Y-4725000D01*
X6950000Y-4725000D02*
X6825000Y-4600000D01*
X6700000Y-4950000D02*
X6575000Y-5075000D01*
X6700000Y-4950000D02*
X6625000Y-4875000D01*
X5125000Y-5600000D02*
X5125000Y-5775000D01*
X4350000Y-5250000D02*
X4350000Y-5475000D01*
X4300000Y-5200000D02*
X4350000Y-5250000D01*
X4300000Y-4825000D02*
X4300000Y-5200000D01*
X4700000Y-5350000D02*
X4700000Y-5450000D01*
X4675000Y-5325000D02*
X4700000Y-5350000D01*
X5225000Y-4900000D02*
X5175000Y-4950000D01*
X5225000Y-4800000D02*
X5225000Y-4900000D01*
X4675000Y-4625000D02*
X4675000Y-4750000D01*
X5250000Y-4025000D02*
X5250000Y-4050000D01*
X5250000Y-4050000D02*
X5150000Y-4150000D01*
X5150000Y-4150000D02*
X5100000Y-4150000D01*
X5625000Y-4575000D02*
X5625000Y-4350000D01*
X5675000Y-4625000D02*
X5625000Y-4575000D01*
X5950000Y-5375000D02*
X5775000Y-5375000D01*
X5900000Y-5175000D02*
X5900000Y-5000000D01*
X6200000Y-5375000D02*
X5950000Y-5375000D01*
X6575000Y-5375000D02*
X6575000Y-5175000D01*
D23*
X6928900Y-5750000D02*
X6928900Y-5703900D01*
X6875000Y-5650000D02*
X6875000Y-5575000D01*
X6928900Y-5703900D02*
X6875000Y-5650000D01*
X6775000Y-5475000D02*
X6875000Y-5575000D01*
X5975000Y-5475000D02*
X5875000Y-5475000D01*
X5875000Y-5475000D02*
X5750000Y-5600000D01*
X7675000Y-5175000D02*
X7725000Y-5125000D01*
X7675000Y-4597000D02*
X7750000Y-4522000D01*
X7675000Y-4850000D02*
X7675000Y-4597000D01*
X7725000Y-4900000D02*
X7675000Y-4850000D01*
X7725000Y-5125000D02*
X7725000Y-4900000D01*
X5100000Y-4425000D02*
X5175000Y-4425000D01*
X5300000Y-4550000D02*
X5300000Y-5525000D01*
X5175000Y-4425000D02*
X5300000Y-4550000D01*
X5300000Y-5525000D02*
X5225000Y-5600000D01*
X4675000Y-4225000D02*
X4550000Y-4100000D01*
X4550000Y-4100000D02*
X4550000Y-4075000D01*
X5050000Y-4025000D02*
X5000000Y-4075000D01*
X4550000Y-4075000D02*
X4500000Y-4025000D01*
X5000000Y-4075000D02*
X4550000Y-4075000D01*
X5400000Y-4650000D02*
X5400000Y-4800000D01*
X5400000Y-4800000D02*
X5500000Y-4900000D01*
X5600000Y-5600000D02*
X5600000Y-5425000D01*
X5600000Y-5425000D02*
X5500000Y-5325000D01*
X5500000Y-5325000D02*
X5500000Y-4900000D01*
X5225000Y-4625000D02*
X5100000Y-4625000D01*
X5000000Y-4175000D02*
X5000000Y-4200000D01*
X5075000Y-4375000D02*
X5050000Y-4400000D01*
X5125000Y-4375000D02*
X5075000Y-4375000D01*
X5150000Y-4350000D02*
X5125000Y-4375000D01*
X5150000Y-4300000D02*
X5150000Y-4350000D01*
X5125000Y-4275000D02*
X5150000Y-4300000D01*
X5075000Y-4275000D02*
X5125000Y-4275000D01*
X5000000Y-4200000D02*
X5075000Y-4275000D01*
X5100000Y-4625000D02*
X5050000Y-4575000D01*
X5050000Y-4575000D02*
X5050000Y-4400000D01*
X5000000Y-4175000D02*
X5150000Y-4025000D01*
X4800000Y-5125000D02*
X4800000Y-5050000D01*
X4600000Y-4525000D02*
X4500000Y-4425000D01*
X4600000Y-4850000D02*
X4600000Y-4525000D01*
X4800000Y-5050000D02*
X4600000Y-4850000D01*
X4150000Y-5400000D02*
X4150000Y-5225000D01*
X4050000Y-4985039D02*
X4113780Y-4921260D01*
X4050000Y-5125000D02*
X4050000Y-4985039D01*
X4150000Y-5225000D02*
X4050000Y-5125000D01*
X7700000Y-5350000D02*
X7550000Y-5200000D01*
X7550000Y-5200000D02*
X7550000Y-4825000D01*
D24*
X4425000Y-4725000D02*
X4425000Y-4600000D01*
X5525000Y-5425000D02*
X5450000Y-5350000D01*
X5450000Y-5350000D02*
X5450000Y-4900000D01*
X5525000Y-5775000D02*
X5600000Y-5850000D01*
X7425000Y-5100000D02*
X7200000Y-4875000D01*
X7425000Y-5675000D02*
X7425000Y-5100000D01*
X7250000Y-5850000D02*
X7425000Y-5675000D01*
X5600000Y-5850000D02*
X7250000Y-5850000D01*
X4425000Y-5325000D02*
X4425000Y-5725000D01*
X5450000Y-4900000D02*
X5350000Y-4800000D01*
X5525000Y-5775000D02*
X5525000Y-5425000D01*
X5450000Y-5850000D02*
X5525000Y-5775000D01*
X4550000Y-5850000D02*
X5450000Y-5850000D01*
X4425000Y-5725000D02*
X4550000Y-5850000D01*
X4425000Y-5325000D02*
X4425000Y-5175000D01*
D23*
X6975000Y-5575000D02*
X6875000Y-5475000D01*
X7121100Y-5750000D02*
X7121100Y-5721100D01*
X7121100Y-5721100D02*
X6975000Y-5575000D01*
X5100000Y-4325000D02*
X5050000Y-4325000D01*
X4750000Y-5375000D02*
X4800000Y-5425000D01*
X4750000Y-5300000D02*
X4750000Y-5375000D01*
X4775000Y-5275000D02*
X4750000Y-5300000D01*
X4825000Y-5275000D02*
X4775000Y-5275000D01*
X4850000Y-5250000D02*
X4825000Y-5275000D01*
X4850000Y-5025000D02*
X4850000Y-5250000D01*
X4750000Y-4925000D02*
X4850000Y-5025000D01*
X4750000Y-4200000D02*
X4750000Y-4925000D01*
X4775000Y-4175000D02*
X4750000Y-4200000D01*
X4900000Y-4175000D02*
X4775000Y-4175000D01*
X5050000Y-4325000D02*
X4900000Y-4175000D01*
X4800000Y-4525000D02*
X4800000Y-4425000D01*
X4800000Y-4625000D02*
X4800000Y-4525000D01*
X5100000Y-4825000D02*
X5100000Y-5025000D01*
X5100000Y-5025000D02*
X4950000Y-5175000D01*
X4775000Y-5725000D02*
X4875000Y-5625000D01*
X4950000Y-5575000D02*
X4950000Y-5175000D01*
X4900000Y-5625000D02*
X4950000Y-5575000D01*
X4875000Y-5625000D02*
X4900000Y-5625000D01*
D24*
X5100000Y-4225000D02*
X5200000Y-4225000D01*
X5200000Y-4225000D02*
X5325000Y-4100000D01*
X5425000Y-5725000D02*
X5450000Y-5700000D01*
X5450000Y-5700000D02*
X5450000Y-5450000D01*
X5450000Y-5450000D02*
X5375000Y-5375000D01*
X5375000Y-5375000D02*
X5375000Y-5200000D01*
X4800000Y-4325000D02*
X4800000Y-4225000D01*
X4800000Y-4325000D02*
X4900000Y-4425000D01*
X5100000Y-5425000D02*
X5175000Y-5425000D01*
X5225000Y-5375000D02*
X5225000Y-5200000D01*
X5175000Y-5425000D02*
X5225000Y-5375000D01*
X5325000Y-4100000D02*
X5650000Y-4100000D01*
X5650000Y-4100000D02*
X6000000Y-4450000D01*
X6000000Y-4450000D02*
X6000000Y-4625000D01*
X6575000Y-5475000D02*
X6675000Y-5375000D01*
X6675000Y-5375000D02*
X6675000Y-5175000D01*
X6575000Y-5575000D02*
X6575000Y-5475000D01*
X6675000Y-5175000D02*
X6675000Y-5075000D01*
X4850000Y-5325000D02*
X4900000Y-5375000D01*
X4900000Y-5375000D02*
X4900000Y-5550000D01*
X4900000Y-5000000D02*
X4900000Y-5275000D01*
X4850000Y-5325000D02*
X4800000Y-5325000D01*
X4900000Y-5275000D02*
X4850000Y-5325000D01*
X4900000Y-5000000D02*
X4900000Y-4425000D01*
X4425000Y-5075000D02*
X4425000Y-4950000D01*
X4425000Y-4950000D02*
X4425000Y-4825000D01*
D23*
X5425000Y-4375000D02*
X5425000Y-4575000D01*
X5475000Y-4775000D02*
X5550000Y-4850000D01*
X5475000Y-4625000D02*
X5475000Y-4775000D01*
X5425000Y-4575000D02*
X5475000Y-4625000D01*
X6225000Y-5525000D02*
X5900000Y-5525000D01*
X5900000Y-5525000D02*
X5775000Y-5650000D01*
X5700000Y-5075000D02*
X5550000Y-4925000D01*
X5550000Y-4925000D02*
X5550000Y-4850000D01*
X6275000Y-5475000D02*
X6225000Y-5525000D01*
X5700000Y-5625000D02*
X5700000Y-5075000D01*
X5725000Y-5650000D02*
X5700000Y-5625000D01*
X5775000Y-5650000D02*
X5725000Y-5650000D01*
X5425000Y-4375000D02*
X5350000Y-4300000D01*
X6250000Y-4200000D02*
X6325000Y-4200000D01*
X6350000Y-4225000D02*
X6350000Y-4900000D01*
X6325000Y-4200000D02*
X6350000Y-4225000D01*
X6375000Y-5475000D02*
X6375000Y-5250000D01*
X6425000Y-4975000D02*
X6350000Y-4900000D01*
X6425000Y-5200000D02*
X6425000Y-4975000D01*
X6375000Y-5250000D02*
X6425000Y-5200000D01*
X5400000Y-4450000D02*
X5400000Y-4600000D01*
X5450000Y-4800000D02*
X5525000Y-4875000D01*
X5450000Y-4650000D02*
X5450000Y-4800000D01*
X5400000Y-4600000D02*
X5450000Y-4650000D01*
X6400000Y-5550000D02*
X5925000Y-5550000D01*
X5925000Y-5550000D02*
X5800000Y-5675000D01*
X6475000Y-5475000D02*
X6400000Y-5550000D01*
X5525000Y-4950000D02*
X5525000Y-4875000D01*
X5675000Y-5100000D02*
X5525000Y-4950000D01*
X5675000Y-5650000D02*
X5675000Y-5100000D01*
X5700000Y-5675000D02*
X5675000Y-5650000D01*
X5800000Y-5675000D02*
X5700000Y-5675000D01*
X5400000Y-4450000D02*
X5350000Y-4400000D01*
X6475000Y-4300000D02*
X6525000Y-4350000D01*
X6525000Y-4500000D02*
X6925000Y-4900000D01*
X6525000Y-4350000D02*
X6525000Y-4500000D01*
X6975000Y-5475000D02*
X6975000Y-5250000D01*
X6925000Y-5200000D02*
X6925000Y-4900000D01*
X6975000Y-5250000D02*
X6925000Y-5200000D01*
X7300000Y-4275000D02*
X7300000Y-4475000D01*
X7300000Y-4475000D02*
X7075000Y-4700000D01*
X7075000Y-5475000D02*
X7075000Y-5250000D01*
X7075000Y-5000000D02*
X7075000Y-4700000D01*
X7125000Y-5050000D02*
X7075000Y-5000000D01*
X7125000Y-5200000D02*
X7125000Y-5050000D01*
X7075000Y-5250000D02*
X7125000Y-5200000D01*
X7300000Y-4275000D02*
X7375000Y-4200000D01*
X6975000Y-4850000D02*
X6550000Y-4425000D01*
X6550000Y-4300000D02*
X6500000Y-4250000D01*
X6550000Y-4425000D02*
X6550000Y-4300000D01*
X6475000Y-4400000D02*
X6425000Y-4350000D01*
X6450000Y-4250000D02*
X6500000Y-4250000D01*
X6425000Y-4275000D02*
X6450000Y-4250000D01*
X6425000Y-4350000D02*
X6425000Y-4275000D01*
X7175000Y-5475000D02*
X7125000Y-5525000D01*
X6975000Y-5000000D02*
X6975000Y-4850000D01*
X7025000Y-5050000D02*
X6975000Y-5000000D01*
X7025000Y-5500000D02*
X7025000Y-5050000D01*
X7050000Y-5525000D02*
X7025000Y-5500000D01*
X7125000Y-5525000D02*
X7050000Y-5525000D01*
X7275000Y-5475000D02*
X7275000Y-5250000D01*
X7425000Y-4350000D02*
X7375000Y-4300000D01*
X7425000Y-4625000D02*
X7425000Y-4350000D01*
X7400000Y-4650000D02*
X7425000Y-4625000D01*
X7300000Y-4650000D02*
X7400000Y-4650000D01*
X7150000Y-4800000D02*
X7300000Y-4650000D01*
X7150000Y-4925000D02*
X7150000Y-4800000D01*
X7325000Y-5100000D02*
X7150000Y-4925000D01*
X7325000Y-5200000D02*
X7325000Y-5100000D01*
X7275000Y-5250000D02*
X7325000Y-5200000D01*
X7275000Y-5175000D02*
X7275000Y-5100000D01*
X7125000Y-4750000D02*
X7375000Y-4500000D01*
X7125000Y-4950000D02*
X7125000Y-4750000D01*
X7275000Y-5100000D02*
X7125000Y-4950000D01*
X7325000Y-4450000D02*
X7325000Y-4500000D01*
X7325000Y-4500000D02*
X7100000Y-4725000D01*
X7175000Y-5175000D02*
X7175000Y-5050000D01*
X7100000Y-4975000D02*
X7100000Y-4725000D01*
X7175000Y-5050000D02*
X7100000Y-4975000D01*
X7325000Y-4450000D02*
X7375000Y-4400000D01*
X7075000Y-5175000D02*
X7075000Y-5050000D01*
X7025000Y-5000000D02*
X7025000Y-4650000D01*
X7050000Y-5025000D02*
X7025000Y-5000000D01*
X7050000Y-5025000D02*
X7050000Y-5025000D01*
X7075000Y-5050000D02*
X7050000Y-5025000D01*
X6950000Y-4875000D02*
X6675000Y-4600000D01*
X6975000Y-5175000D02*
X6975000Y-5075000D01*
X6950000Y-5025000D02*
X6950000Y-4875000D01*
X6975000Y-5050000D02*
X6950000Y-5025000D01*
X6975000Y-5075000D02*
X6975000Y-5050000D01*
X6475000Y-4200000D02*
X6425000Y-4200000D01*
X6400000Y-4225000D02*
X6400000Y-4925000D01*
X6425000Y-4200000D02*
X6400000Y-4225000D01*
X6475000Y-5175000D02*
X6475000Y-5000000D01*
X6475000Y-5000000D02*
X6400000Y-4925000D01*
X6275000Y-4250000D02*
X6225000Y-4250000D01*
X6375000Y-4975000D02*
X6325000Y-4925000D01*
X6325000Y-4925000D02*
X6325000Y-4300000D01*
X6325000Y-4300000D02*
X6275000Y-4250000D01*
X6375000Y-5175000D02*
X6375000Y-4975000D01*
X6200000Y-4350000D02*
X6250000Y-4400000D01*
X6200000Y-4275000D02*
X6200000Y-4350000D01*
X6225000Y-4250000D02*
X6200000Y-4275000D01*
X6275000Y-5175000D02*
X6275000Y-4950000D01*
X6300000Y-4350000D02*
X6250000Y-4300000D01*
X6300000Y-4925000D02*
X6300000Y-4350000D01*
X6275000Y-4950000D02*
X6300000Y-4925000D01*
X5450000Y-4300000D02*
X5450000Y-4550000D01*
X5500000Y-4750000D02*
X5575000Y-4825000D01*
X5500000Y-4600000D02*
X5500000Y-4750000D01*
X5450000Y-4550000D02*
X5500000Y-4600000D01*
X6175000Y-5175000D02*
X6125000Y-5225000D01*
X5575000Y-4900000D02*
X5575000Y-4825000D01*
X5900000Y-5225000D02*
X5575000Y-4900000D01*
X6125000Y-5225000D02*
X5900000Y-5225000D01*
X5450000Y-4300000D02*
X5350000Y-4200000D01*
X6250000Y-4700000D02*
X6250000Y-4700000D01*
X6000000Y-4950000D02*
X6000000Y-5025000D01*
X6250000Y-4700000D02*
X6000000Y-4950000D01*
X6000000Y-5025000D02*
X6000000Y-5100000D01*
X6000000Y-5100000D02*
X6075000Y-5175000D01*
X5800000Y-5025000D02*
X6225000Y-4600000D01*
X6225000Y-4600000D02*
X6250000Y-4600000D01*
D25*
G36*
X4676971Y-4625557D02*
X4675557Y-4626971D01*
X4675000Y-4626414D01*
X4674443Y-4626971D01*
X4673029Y-4625557D01*
X4673586Y-4625000D01*
X4673029Y-4624443D01*
X4674443Y-4623029D01*
X4675000Y-4623586D01*
X4675557Y-4623029D01*
X4676971Y-4624443D01*
X4676414Y-4625000D01*
X4676971Y-4625557D01*
X4676971Y-4625557D01*
G37*
X4676971Y-4625557D02*
X4675557Y-4626971D01*
X4675000Y-4626414D01*
X4674443Y-4626971D01*
X4673029Y-4625557D01*
X4673586Y-4625000D01*
X4673029Y-4624443D01*
X4674443Y-4623029D01*
X4675000Y-4623586D01*
X4675557Y-4623029D01*
X4676971Y-4624443D01*
X4676414Y-4625000D01*
X4676971Y-4625557D01*
G36*
X4722238Y-4931226D02*
X4717846Y-4926834D01*
X4629000Y-4837988D01*
X4629000Y-4672414D01*
X4632154Y-4669260D01*
X4634461Y-4682498D01*
X4659551Y-4693634D01*
X4686992Y-4694322D01*
X4712608Y-4684456D01*
X4715539Y-4682498D01*
X4717846Y-4669260D01*
X4717846Y-4669261D01*
X4721000Y-4672414D01*
X4721000Y-4925000D01*
X4722238Y-4931226D01*
X4722238Y-4931226D01*
G37*
X4722238Y-4931226D02*
X4717846Y-4926834D01*
X4629000Y-4837988D01*
X4629000Y-4672414D01*
X4632154Y-4669260D01*
X4634461Y-4682498D01*
X4659551Y-4693634D01*
X4686992Y-4694322D01*
X4712608Y-4684456D01*
X4715539Y-4682498D01*
X4717846Y-4669260D01*
X4717846Y-4669261D01*
X4721000Y-4672414D01*
X4721000Y-4925000D01*
X4722238Y-4931226D01*
G36*
X4855000Y-4967843D02*
X4853782Y-4969060D01*
X4848292Y-4982280D01*
X4779000Y-4912988D01*
X4779000Y-4884051D01*
X4786098Y-4887190D01*
X4810955Y-4887776D01*
X4834145Y-4878805D01*
X4836643Y-4877136D01*
X4838159Y-4864573D01*
X4800000Y-4826414D01*
X4799443Y-4826971D01*
X4798029Y-4825557D01*
X4798586Y-4825000D01*
X4798029Y-4824443D01*
X4799443Y-4823029D01*
X4800000Y-4823586D01*
X4838159Y-4785427D01*
X4836643Y-4772864D01*
X4829394Y-4769660D01*
X4829700Y-4769533D01*
X4844481Y-4754778D01*
X4852491Y-4735489D01*
X4852509Y-4714603D01*
X4844533Y-4695300D01*
X4829778Y-4680519D01*
X4816478Y-4674996D01*
X4829700Y-4669533D01*
X4844481Y-4654778D01*
X4852491Y-4635489D01*
X4852509Y-4614603D01*
X4844533Y-4595300D01*
X4829778Y-4580519D01*
X4829000Y-4580196D01*
X4829000Y-4569823D01*
X4829700Y-4569533D01*
X4844481Y-4554778D01*
X4852491Y-4535489D01*
X4852509Y-4514603D01*
X4844533Y-4495300D01*
X4829778Y-4480519D01*
X4829000Y-4480196D01*
X4829000Y-4469823D01*
X4829700Y-4469533D01*
X4844481Y-4454778D01*
X4850836Y-4439475D01*
X4855000Y-4443640D01*
X4855000Y-4793945D01*
X4853805Y-4790855D01*
X4852136Y-4788357D01*
X4839573Y-4786841D01*
X4801414Y-4825000D01*
X4839573Y-4863159D01*
X4852136Y-4861643D01*
X4855000Y-4855164D01*
X4855000Y-4967843D01*
X4855000Y-4967843D01*
G37*
X4855000Y-4967843D02*
X4853782Y-4969060D01*
X4848292Y-4982280D01*
X4779000Y-4912988D01*
X4779000Y-4884051D01*
X4786098Y-4887190D01*
X4810955Y-4887776D01*
X4834145Y-4878805D01*
X4836643Y-4877136D01*
X4838159Y-4864573D01*
X4800000Y-4826414D01*
X4799443Y-4826971D01*
X4798029Y-4825557D01*
X4798586Y-4825000D01*
X4798029Y-4824443D01*
X4799443Y-4823029D01*
X4800000Y-4823586D01*
X4838159Y-4785427D01*
X4836643Y-4772864D01*
X4829394Y-4769660D01*
X4829700Y-4769533D01*
X4844481Y-4754778D01*
X4852491Y-4735489D01*
X4852509Y-4714603D01*
X4844533Y-4695300D01*
X4829778Y-4680519D01*
X4816478Y-4674996D01*
X4829700Y-4669533D01*
X4844481Y-4654778D01*
X4852491Y-4635489D01*
X4852509Y-4614603D01*
X4844533Y-4595300D01*
X4829778Y-4580519D01*
X4829000Y-4580196D01*
X4829000Y-4569823D01*
X4829700Y-4569533D01*
X4844481Y-4554778D01*
X4852491Y-4535489D01*
X4852509Y-4514603D01*
X4844533Y-4495300D01*
X4829778Y-4480519D01*
X4829000Y-4480196D01*
X4829000Y-4469823D01*
X4829700Y-4469533D01*
X4844481Y-4454778D01*
X4850836Y-4439475D01*
X4855000Y-4443640D01*
X4855000Y-4793945D01*
X4853805Y-4790855D01*
X4852136Y-4788357D01*
X4839573Y-4786841D01*
X4801414Y-4825000D01*
X4839573Y-4863159D01*
X4852136Y-4861643D01*
X4855000Y-4855164D01*
X4855000Y-4967843D01*
G36*
X5049988Y-4084000D02*
X4979494Y-4154494D01*
X4973207Y-4163902D01*
X4971000Y-4175000D01*
X4971000Y-4200000D01*
X4972238Y-4206226D01*
X4920506Y-4154494D01*
X4911098Y-4148207D01*
X4900000Y-4146000D01*
X4775000Y-4146000D01*
X4763902Y-4148207D01*
X4754494Y-4154494D01*
X4729494Y-4179494D01*
X4723207Y-4188902D01*
X4723062Y-4189634D01*
X4708464Y-4175011D01*
X4686787Y-4166010D01*
X4663316Y-4165990D01*
X4658848Y-4167836D01*
X4595012Y-4104000D01*
X5000000Y-4104000D01*
X5011098Y-4101793D01*
X5020506Y-4095506D01*
X5033839Y-4082173D01*
X5038213Y-4083990D01*
X5049988Y-4084000D01*
X5049988Y-4084000D01*
G37*
X5049988Y-4084000D02*
X4979494Y-4154494D01*
X4973207Y-4163902D01*
X4971000Y-4175000D01*
X4971000Y-4200000D01*
X4972238Y-4206226D01*
X4920506Y-4154494D01*
X4911098Y-4148207D01*
X4900000Y-4146000D01*
X4775000Y-4146000D01*
X4763902Y-4148207D01*
X4754494Y-4154494D01*
X4729494Y-4179494D01*
X4723207Y-4188902D01*
X4723062Y-4189634D01*
X4708464Y-4175011D01*
X4686787Y-4166010D01*
X4663316Y-4165990D01*
X4658848Y-4167836D01*
X4595012Y-4104000D01*
X5000000Y-4104000D01*
X5011098Y-4101793D01*
X5020506Y-4095506D01*
X5033839Y-4082173D01*
X5038213Y-4083990D01*
X5049988Y-4084000D01*
G36*
X5083521Y-4775004D02*
X5070300Y-4780467D01*
X5055519Y-4795222D01*
X5047509Y-4814511D01*
X5047491Y-4835397D01*
X5055467Y-4854700D01*
X5070222Y-4869481D01*
X5071000Y-4869804D01*
X5071000Y-5012988D01*
X5059952Y-5024036D01*
X5064222Y-5014390D01*
X5064840Y-4988718D01*
X5055587Y-4964763D01*
X5053827Y-4962129D01*
X5041052Y-4960363D01*
X5039637Y-4961777D01*
X5039637Y-4958948D01*
X5037871Y-4946173D01*
X5014390Y-4935778D01*
X4988718Y-4935160D01*
X4964763Y-4944413D01*
X4962129Y-4946173D01*
X4960363Y-4958948D01*
X5000000Y-4998586D01*
X5039637Y-4958948D01*
X5039637Y-4961777D01*
X5001414Y-5000000D01*
X5001971Y-5000557D01*
X5000557Y-5001971D01*
X5000000Y-5001414D01*
X4960363Y-5041052D01*
X4962129Y-5053827D01*
X4985610Y-5064222D01*
X5011282Y-5064840D01*
X5024098Y-5059890D01*
X4945000Y-5138988D01*
X4945000Y-5036116D01*
X4946173Y-5037871D01*
X4958948Y-5039637D01*
X4998586Y-5000000D01*
X4958948Y-4960363D01*
X4946173Y-4962129D01*
X4945000Y-4964779D01*
X4945000Y-4425000D01*
X4941575Y-4407779D01*
X4931820Y-4393180D01*
X4851993Y-4313353D01*
X4845000Y-4296429D01*
X4845000Y-4270355D01*
X4848694Y-4266661D01*
X4852500Y-4257473D01*
X4852500Y-4247527D01*
X4852500Y-4204000D01*
X4887988Y-4204000D01*
X5029494Y-4345506D01*
X5038902Y-4351793D01*
X5038902Y-4351793D01*
X5050000Y-4354000D01*
X5055177Y-4354000D01*
X5055189Y-4354029D01*
X5054494Y-4354494D01*
X5029494Y-4379494D01*
X5023207Y-4388902D01*
X5021000Y-4400000D01*
X5021000Y-4575000D01*
X5023207Y-4586098D01*
X5029494Y-4595506D01*
X5047800Y-4613812D01*
X5047509Y-4614511D01*
X5047491Y-4635397D01*
X5055467Y-4654700D01*
X5070222Y-4669481D01*
X5083521Y-4675004D01*
X5070300Y-4680467D01*
X5055519Y-4695222D01*
X5047509Y-4714511D01*
X5047491Y-4735397D01*
X5055467Y-4754700D01*
X5070222Y-4769481D01*
X5083521Y-4775004D01*
X5083521Y-4775004D01*
G37*
X5083521Y-4775004D02*
X5070300Y-4780467D01*
X5055519Y-4795222D01*
X5047509Y-4814511D01*
X5047491Y-4835397D01*
X5055467Y-4854700D01*
X5070222Y-4869481D01*
X5071000Y-4869804D01*
X5071000Y-5012988D01*
X5059952Y-5024036D01*
X5064222Y-5014390D01*
X5064840Y-4988718D01*
X5055587Y-4964763D01*
X5053827Y-4962129D01*
X5041052Y-4960363D01*
X5039637Y-4961777D01*
X5039637Y-4958948D01*
X5037871Y-4946173D01*
X5014390Y-4935778D01*
X4988718Y-4935160D01*
X4964763Y-4944413D01*
X4962129Y-4946173D01*
X4960363Y-4958948D01*
X5000000Y-4998586D01*
X5039637Y-4958948D01*
X5039637Y-4961777D01*
X5001414Y-5000000D01*
X5001971Y-5000557D01*
X5000557Y-5001971D01*
X5000000Y-5001414D01*
X4960363Y-5041052D01*
X4962129Y-5053827D01*
X4985610Y-5064222D01*
X5011282Y-5064840D01*
X5024098Y-5059890D01*
X4945000Y-5138988D01*
X4945000Y-5036116D01*
X4946173Y-5037871D01*
X4958948Y-5039637D01*
X4998586Y-5000000D01*
X4958948Y-4960363D01*
X4946173Y-4962129D01*
X4945000Y-4964779D01*
X4945000Y-4425000D01*
X4941575Y-4407779D01*
X4931820Y-4393180D01*
X4851993Y-4313353D01*
X4845000Y-4296429D01*
X4845000Y-4270355D01*
X4848694Y-4266661D01*
X4852500Y-4257473D01*
X4852500Y-4247527D01*
X4852500Y-4204000D01*
X4887988Y-4204000D01*
X5029494Y-4345506D01*
X5038902Y-4351793D01*
X5038902Y-4351793D01*
X5050000Y-4354000D01*
X5055177Y-4354000D01*
X5055189Y-4354029D01*
X5054494Y-4354494D01*
X5029494Y-4379494D01*
X5023207Y-4388902D01*
X5021000Y-4400000D01*
X5021000Y-4575000D01*
X5023207Y-4586098D01*
X5029494Y-4595506D01*
X5047800Y-4613812D01*
X5047509Y-4614511D01*
X5047491Y-4635397D01*
X5055467Y-4654700D01*
X5070222Y-4669481D01*
X5083521Y-4675004D01*
X5070300Y-4680467D01*
X5055519Y-4695222D01*
X5047509Y-4714511D01*
X5047491Y-4735397D01*
X5055467Y-4754700D01*
X5070222Y-4769481D01*
X5083521Y-4775004D01*
G36*
X5316572Y-4450004D02*
X5300011Y-4466536D01*
X5291010Y-4488213D01*
X5291000Y-4499988D01*
X5195506Y-4404494D01*
X5186098Y-4398207D01*
X5175000Y-4396000D01*
X5144823Y-4396000D01*
X5144810Y-4395971D01*
X5145506Y-4395506D01*
X5170506Y-4370506D01*
X5176793Y-4361098D01*
X5176793Y-4361098D01*
X5179000Y-4350000D01*
X5179000Y-4300000D01*
X5176793Y-4288902D01*
X5176793Y-4288902D01*
X5170506Y-4279494D01*
X5161012Y-4270000D01*
X5200000Y-4270000D01*
X5217221Y-4266575D01*
X5231820Y-4256820D01*
X5291000Y-4197640D01*
X5291000Y-4238973D01*
X5294806Y-4248161D01*
X5301839Y-4255194D01*
X5308577Y-4257985D01*
X5300011Y-4266536D01*
X5291010Y-4288213D01*
X5290990Y-4311684D01*
X5299953Y-4333377D01*
X5316536Y-4349989D01*
X5316572Y-4350004D01*
X5300011Y-4366536D01*
X5291010Y-4388213D01*
X5290990Y-4411684D01*
X5299953Y-4433377D01*
X5316536Y-4449989D01*
X5316572Y-4450004D01*
X5316572Y-4450004D01*
G37*
X5316572Y-4450004D02*
X5300011Y-4466536D01*
X5291010Y-4488213D01*
X5291000Y-4499988D01*
X5195506Y-4404494D01*
X5186098Y-4398207D01*
X5175000Y-4396000D01*
X5144823Y-4396000D01*
X5144810Y-4395971D01*
X5145506Y-4395506D01*
X5170506Y-4370506D01*
X5176793Y-4361098D01*
X5176793Y-4361098D01*
X5179000Y-4350000D01*
X5179000Y-4300000D01*
X5176793Y-4288902D01*
X5176793Y-4288902D01*
X5170506Y-4279494D01*
X5161012Y-4270000D01*
X5200000Y-4270000D01*
X5217221Y-4266575D01*
X5231820Y-4256820D01*
X5291000Y-4197640D01*
X5291000Y-4238973D01*
X5294806Y-4248161D01*
X5301839Y-4255194D01*
X5308577Y-4257985D01*
X5300011Y-4266536D01*
X5291010Y-4288213D01*
X5290990Y-4311684D01*
X5299953Y-4333377D01*
X5316536Y-4349989D01*
X5316572Y-4350004D01*
X5300011Y-4366536D01*
X5291010Y-4388213D01*
X5290990Y-4411684D01*
X5299953Y-4433377D01*
X5316536Y-4449989D01*
X5316572Y-4450004D01*
G36*
X5405000Y-5148573D02*
X5386787Y-5141010D01*
X5363316Y-5140990D01*
X5341623Y-5149953D01*
X5329000Y-5162554D01*
X5329000Y-4966171D01*
X5334551Y-4968634D01*
X5361992Y-4969322D01*
X5387608Y-4959456D01*
X5390539Y-4957498D01*
X5392846Y-4944260D01*
X5350000Y-4901414D01*
X5349443Y-4901971D01*
X5348029Y-4900557D01*
X5348586Y-4900000D01*
X5348029Y-4899443D01*
X5349443Y-4898029D01*
X5350000Y-4898586D01*
X5350557Y-4898029D01*
X5351971Y-4899443D01*
X5351414Y-4900000D01*
X5394260Y-4942846D01*
X5405000Y-4940974D01*
X5405000Y-5148573D01*
X5405000Y-5148573D01*
G37*
X5405000Y-5148573D02*
X5386787Y-5141010D01*
X5363316Y-5140990D01*
X5341623Y-5149953D01*
X5329000Y-5162554D01*
X5329000Y-4966171D01*
X5334551Y-4968634D01*
X5361992Y-4969322D01*
X5387608Y-4959456D01*
X5390539Y-4957498D01*
X5392846Y-4944260D01*
X5350000Y-4901414D01*
X5349443Y-4901971D01*
X5348029Y-4900557D01*
X5348586Y-4900000D01*
X5348029Y-4899443D01*
X5349443Y-4898029D01*
X5350000Y-4898586D01*
X5350557Y-4898029D01*
X5351971Y-4899443D01*
X5351414Y-4900000D01*
X5394260Y-4942846D01*
X5405000Y-4940974D01*
X5405000Y-5148573D01*
G36*
X5447010Y-5789350D02*
X5431360Y-5805000D01*
X5089361Y-5805000D01*
X5089361Y-5712256D01*
X5079585Y-5688596D01*
X5064840Y-5673826D01*
X5064840Y-5538718D01*
X5055587Y-5514763D01*
X5053827Y-5512129D01*
X5041052Y-5510363D01*
X5001414Y-5550000D01*
X5041052Y-5589637D01*
X5053827Y-5587871D01*
X5064222Y-5564390D01*
X5064840Y-5538718D01*
X5064840Y-5673826D01*
X5061499Y-5670479D01*
X5037856Y-5660661D01*
X5012256Y-5660639D01*
X4988596Y-5670415D01*
X4970479Y-5688501D01*
X4960661Y-5712144D01*
X4960639Y-5737744D01*
X4970415Y-5761404D01*
X4988501Y-5779521D01*
X5012144Y-5789339D01*
X5037744Y-5789361D01*
X5061404Y-5779585D01*
X5079521Y-5761499D01*
X5089339Y-5737856D01*
X5089361Y-5712256D01*
X5089361Y-5805000D01*
X4709010Y-5805000D01*
X4709010Y-5513316D01*
X4709010Y-5113316D01*
X4700047Y-5091623D01*
X4683464Y-5075011D01*
X4661787Y-5066010D01*
X4638316Y-5065990D01*
X4616623Y-5074953D01*
X4600011Y-5091536D01*
X4591010Y-5113213D01*
X4590990Y-5136684D01*
X4599953Y-5158377D01*
X4616536Y-5174989D01*
X4638213Y-5183990D01*
X4661684Y-5184010D01*
X4683377Y-5175047D01*
X4699989Y-5158464D01*
X4708990Y-5136787D01*
X4709010Y-5113316D01*
X4709010Y-5513316D01*
X4700047Y-5491623D01*
X4683464Y-5475011D01*
X4661787Y-5466010D01*
X4638316Y-5465990D01*
X4616623Y-5474953D01*
X4600011Y-5491536D01*
X4591010Y-5513213D01*
X4590990Y-5536684D01*
X4599953Y-5558377D01*
X4616536Y-5574989D01*
X4638213Y-5583990D01*
X4661684Y-5584010D01*
X4683377Y-5575047D01*
X4699989Y-5558464D01*
X4708990Y-5536787D01*
X4709010Y-5513316D01*
X4709010Y-5805000D01*
X4589840Y-5805000D01*
X4589840Y-5313718D01*
X4589840Y-4938718D01*
X4580587Y-4914763D01*
X4578827Y-4912129D01*
X4566052Y-4910363D01*
X4565294Y-4911121D01*
X4565294Y-4763646D01*
X4564637Y-4761947D01*
X4555978Y-4739524D01*
X4554198Y-4736859D01*
X4541376Y-4735038D01*
X4501414Y-4775000D01*
X4541376Y-4814962D01*
X4554198Y-4813141D01*
X4564668Y-4789497D01*
X4565294Y-4763646D01*
X4565294Y-4911121D01*
X4564637Y-4911777D01*
X4564637Y-4908948D01*
X4562871Y-4896173D01*
X4539390Y-4885778D01*
X4513718Y-4885160D01*
X4489763Y-4894413D01*
X4487129Y-4896173D01*
X4485363Y-4908948D01*
X4525000Y-4948586D01*
X4564637Y-4908948D01*
X4564637Y-4911777D01*
X4526414Y-4950000D01*
X4566052Y-4989637D01*
X4578827Y-4987871D01*
X4589222Y-4964390D01*
X4589840Y-4938718D01*
X4589840Y-5313718D01*
X4580587Y-5289763D01*
X4578827Y-5287129D01*
X4566052Y-5285363D01*
X4565294Y-5286121D01*
X4565294Y-5113646D01*
X4564637Y-5111947D01*
X4564637Y-4991052D01*
X4525000Y-4951414D01*
X4485363Y-4991052D01*
X4487129Y-5003827D01*
X4510610Y-5014222D01*
X4536282Y-5014840D01*
X4560237Y-5005587D01*
X4562871Y-5003827D01*
X4564637Y-4991052D01*
X4564637Y-5111947D01*
X4555978Y-5089524D01*
X4554198Y-5086859D01*
X4541376Y-5085038D01*
X4501414Y-5125000D01*
X4541376Y-5164962D01*
X4554198Y-5163141D01*
X4564668Y-5139497D01*
X4565294Y-5113646D01*
X4565294Y-5286121D01*
X4564637Y-5286777D01*
X4564637Y-5283948D01*
X4562871Y-5271173D01*
X4539390Y-5260778D01*
X4513718Y-5260160D01*
X4489763Y-5269413D01*
X4487129Y-5271173D01*
X4485363Y-5283948D01*
X4525000Y-5323586D01*
X4564637Y-5283948D01*
X4564637Y-5286777D01*
X4526414Y-5325000D01*
X4566052Y-5364637D01*
X4578827Y-5362871D01*
X4589222Y-5339390D01*
X4589840Y-5313718D01*
X4589840Y-5805000D01*
X4568640Y-5805000D01*
X4564637Y-5800998D01*
X4564637Y-5366052D01*
X4525000Y-5326414D01*
X4485363Y-5366052D01*
X4487129Y-5378827D01*
X4510610Y-5389222D01*
X4536282Y-5389840D01*
X4560237Y-5380587D01*
X4562871Y-5378827D01*
X4564637Y-5366052D01*
X4564637Y-5800998D01*
X4470000Y-5706360D01*
X4470000Y-5361116D01*
X4471173Y-5362871D01*
X4483948Y-5364637D01*
X4523586Y-5325000D01*
X4483948Y-5285363D01*
X4471173Y-5287129D01*
X4470000Y-5289779D01*
X4470000Y-5207792D01*
X4471600Y-5206196D01*
X4479556Y-5187035D01*
X4485503Y-5189668D01*
X4511354Y-5190294D01*
X4535476Y-5180978D01*
X4538141Y-5179198D01*
X4539962Y-5166376D01*
X4500000Y-5126414D01*
X4499443Y-5126971D01*
X4498029Y-5125557D01*
X4498586Y-5125000D01*
X4498029Y-5124443D01*
X4499443Y-5123029D01*
X4500000Y-5123586D01*
X4539962Y-5083624D01*
X4538141Y-5070802D01*
X4514497Y-5060332D01*
X4488646Y-5059706D01*
X4479630Y-5063188D01*
X4471654Y-5043886D01*
X4470000Y-5042229D01*
X4470000Y-4986116D01*
X4471173Y-4987871D01*
X4483948Y-4989637D01*
X4523586Y-4950000D01*
X4483948Y-4910363D01*
X4471173Y-4912129D01*
X4470000Y-4914779D01*
X4470000Y-4857792D01*
X4471600Y-4856196D01*
X4479556Y-4837035D01*
X4485503Y-4839668D01*
X4511354Y-4840294D01*
X4535476Y-4830978D01*
X4538141Y-4829198D01*
X4539962Y-4816376D01*
X4500000Y-4776414D01*
X4499443Y-4776971D01*
X4498029Y-4775557D01*
X4498586Y-4775000D01*
X4498029Y-4774443D01*
X4499443Y-4773029D01*
X4500000Y-4773586D01*
X4539962Y-4733624D01*
X4538141Y-4720802D01*
X4514497Y-4710332D01*
X4488646Y-4709706D01*
X4479630Y-4713188D01*
X4471654Y-4693886D01*
X4470000Y-4692229D01*
X4470000Y-4636116D01*
X4471173Y-4637871D01*
X4483948Y-4639637D01*
X4523586Y-4600000D01*
X4483948Y-4560363D01*
X4471173Y-4562129D01*
X4469053Y-4566917D01*
X4455940Y-4553782D01*
X4435898Y-4545459D01*
X4414197Y-4545441D01*
X4394140Y-4553728D01*
X4378782Y-4569060D01*
X4370459Y-4589102D01*
X4370441Y-4610803D01*
X4378728Y-4630860D01*
X4380000Y-4632134D01*
X4380000Y-4692208D01*
X4378400Y-4693804D01*
X4370010Y-4714012D01*
X4369990Y-4735892D01*
X4378346Y-4756114D01*
X4393804Y-4771600D01*
X4401989Y-4774998D01*
X4393886Y-4778346D01*
X4378400Y-4793804D01*
X4370010Y-4814012D01*
X4369990Y-4835892D01*
X4378346Y-4856114D01*
X4380000Y-4857771D01*
X4380000Y-4917843D01*
X4378782Y-4919060D01*
X4370459Y-4939102D01*
X4370441Y-4960803D01*
X4378728Y-4980860D01*
X4380000Y-4982134D01*
X4380000Y-5042208D01*
X4378400Y-5043804D01*
X4370010Y-5064012D01*
X4369990Y-5085892D01*
X4378346Y-5106114D01*
X4393804Y-5121600D01*
X4401989Y-5124998D01*
X4393886Y-5128346D01*
X4378400Y-5143804D01*
X4370010Y-5164012D01*
X4369990Y-5185892D01*
X4378346Y-5206114D01*
X4380000Y-5207771D01*
X4380000Y-5292843D01*
X4378782Y-5294060D01*
X4370459Y-5314102D01*
X4370441Y-5335803D01*
X4378728Y-5355860D01*
X4380000Y-5357134D01*
X4380000Y-5725000D01*
X4383425Y-5742221D01*
X4393180Y-5756820D01*
X4514904Y-5878543D01*
X4309000Y-5878543D01*
X4309000Y-5438973D01*
X4309000Y-5429027D01*
X4309000Y-5361027D01*
X4305194Y-5351839D01*
X4298161Y-5344806D01*
X4288973Y-5341000D01*
X4279073Y-5341000D01*
X4279073Y-4809906D01*
X4276993Y-4804520D01*
X4276993Y-4105517D01*
X4255252Y-4052899D01*
X4215030Y-4012606D01*
X4162450Y-3990773D01*
X4105517Y-3990723D01*
X4052899Y-4012465D01*
X4012606Y-4052687D01*
X3990773Y-4105267D01*
X3990723Y-4162200D01*
X4012465Y-4214818D01*
X4052687Y-4255110D01*
X4105267Y-4276944D01*
X4162200Y-4276993D01*
X4214818Y-4255252D01*
X4255110Y-4215030D01*
X4276944Y-4162450D01*
X4276993Y-4105517D01*
X4276993Y-4804520D01*
X4269758Y-4785783D01*
X4268789Y-4784333D01*
X4268789Y-4710368D01*
X4260433Y-4690146D01*
X4244975Y-4674660D01*
X4224768Y-4666269D01*
X4202887Y-4666250D01*
X4182665Y-4674606D01*
X4168780Y-4688467D01*
X4168780Y-4686287D01*
X4164974Y-4677099D01*
X4157941Y-4670066D01*
X4148752Y-4666260D01*
X4138807Y-4666260D01*
X4078807Y-4666260D01*
X4069618Y-4670066D01*
X4062586Y-4677098D01*
X4058780Y-4686287D01*
X4058780Y-4696233D01*
X4058780Y-4756233D01*
X4062586Y-4765421D01*
X4069618Y-4772454D01*
X4074581Y-4774509D01*
X4073818Y-4779884D01*
X4113780Y-4819846D01*
X4153741Y-4779884D01*
X4152978Y-4774509D01*
X4157941Y-4772454D01*
X4164974Y-4765421D01*
X4168780Y-4756233D01*
X4168780Y-4754031D01*
X4179535Y-4764806D01*
X4178303Y-4765281D01*
X4175638Y-4767062D01*
X4173818Y-4779884D01*
X4213780Y-4819846D01*
X4253741Y-4779884D01*
X4251921Y-4767062D01*
X4247644Y-4765168D01*
X4260379Y-4752456D01*
X4268770Y-4732248D01*
X4268789Y-4710368D01*
X4268789Y-4784333D01*
X4267978Y-4783119D01*
X4255156Y-4781298D01*
X4215194Y-4821260D01*
X4255156Y-4861222D01*
X4267978Y-4859401D01*
X4278448Y-4835757D01*
X4279073Y-4809906D01*
X4279073Y-5341000D01*
X4279027Y-5341000D01*
X4211027Y-5341000D01*
X4201839Y-5344806D01*
X4194806Y-5351839D01*
X4192015Y-5358577D01*
X4183464Y-5350011D01*
X4179000Y-5348158D01*
X4179000Y-5225000D01*
X4176793Y-5213902D01*
X4170506Y-5204494D01*
X4137133Y-5171121D01*
X4144894Y-5167914D01*
X4160379Y-5152456D01*
X4163778Y-5144271D01*
X4167126Y-5152374D01*
X4182584Y-5167859D01*
X4202791Y-5176250D01*
X4224672Y-5176269D01*
X4244894Y-5167914D01*
X4260379Y-5152456D01*
X4268770Y-5132248D01*
X4268789Y-5110368D01*
X4260433Y-5090146D01*
X4244975Y-5074660D01*
X4236791Y-5071262D01*
X4244894Y-5067914D01*
X4260379Y-5052456D01*
X4268770Y-5032248D01*
X4268789Y-5010368D01*
X4260433Y-4990146D01*
X4244975Y-4974660D01*
X4236791Y-4971262D01*
X4244894Y-4967914D01*
X4260379Y-4952456D01*
X4268770Y-4932248D01*
X4268789Y-4910368D01*
X4260433Y-4890146D01*
X4248024Y-4877714D01*
X4249256Y-4877238D01*
X4251921Y-4875458D01*
X4253741Y-4862636D01*
X4213780Y-4822674D01*
X4212365Y-4824088D01*
X4212365Y-4821260D01*
X4172403Y-4781298D01*
X4163780Y-4782523D01*
X4155156Y-4781298D01*
X4115194Y-4821260D01*
X4155156Y-4861222D01*
X4163780Y-4859997D01*
X4172403Y-4861222D01*
X4212365Y-4821260D01*
X4212365Y-4824088D01*
X4173818Y-4862636D01*
X4175638Y-4875458D01*
X4179915Y-4877352D01*
X4167180Y-4890064D01*
X4163781Y-4898249D01*
X4160433Y-4890146D01*
X4148024Y-4877714D01*
X4149256Y-4877238D01*
X4151921Y-4875458D01*
X4153741Y-4862636D01*
X4113780Y-4822674D01*
X4112365Y-4824088D01*
X4112365Y-4821260D01*
X4072403Y-4781298D01*
X4059582Y-4783119D01*
X4049111Y-4806763D01*
X4048486Y-4832614D01*
X4057801Y-4856736D01*
X4059582Y-4859401D01*
X4072403Y-4861222D01*
X4112365Y-4821260D01*
X4112365Y-4824088D01*
X4073818Y-4862636D01*
X4075638Y-4875458D01*
X4079915Y-4877352D01*
X4067180Y-4890064D01*
X4058789Y-4910272D01*
X4058770Y-4932152D01*
X4059678Y-4934349D01*
X4029494Y-4964533D01*
X4023207Y-4973942D01*
X4021000Y-4985039D01*
X4021000Y-5125000D01*
X4023207Y-5136098D01*
X4029494Y-5145506D01*
X4121000Y-5237012D01*
X4121000Y-5348144D01*
X4116623Y-5349953D01*
X4100011Y-5366536D01*
X4099996Y-5366572D01*
X4083464Y-5350011D01*
X4061787Y-5341010D01*
X4038316Y-5340990D01*
X4016623Y-5349953D01*
X4000011Y-5366536D01*
X3991010Y-5388213D01*
X3990990Y-5411684D01*
X3999953Y-5433377D01*
X4016536Y-5449989D01*
X4038213Y-5458990D01*
X4061684Y-5459010D01*
X4083377Y-5450047D01*
X4099989Y-5433464D01*
X4100004Y-5433428D01*
X4116536Y-5449989D01*
X4138213Y-5458990D01*
X4161684Y-5459010D01*
X4183377Y-5450047D01*
X4192015Y-5441424D01*
X4194806Y-5448161D01*
X4201839Y-5455194D01*
X4211027Y-5459000D01*
X4220973Y-5459000D01*
X4288973Y-5459000D01*
X4298161Y-5455194D01*
X4305194Y-5448161D01*
X4309000Y-5438973D01*
X4309000Y-5878543D01*
X4276993Y-5878543D01*
X4276993Y-5680320D01*
X4255252Y-5627702D01*
X4215030Y-5587409D01*
X4162450Y-5565576D01*
X4105517Y-5565526D01*
X4052899Y-5587268D01*
X4012606Y-5627490D01*
X3990773Y-5680070D01*
X3990723Y-5737003D01*
X4012465Y-5789621D01*
X4052687Y-5829914D01*
X4105267Y-5851747D01*
X4162200Y-5851796D01*
X4214818Y-5830055D01*
X4255110Y-5789833D01*
X4276944Y-5737253D01*
X4276993Y-5680320D01*
X4276993Y-5878543D01*
X3963976Y-5878543D01*
X3963976Y-3963976D01*
X4593526Y-3963976D01*
X4586328Y-3971174D01*
X4581000Y-3984038D01*
X4581000Y-3997962D01*
X4581000Y-4015250D01*
X4589750Y-4024000D01*
X4649000Y-4024000D01*
X4649000Y-4023213D01*
X4651000Y-4023213D01*
X4651000Y-4024000D01*
X4651787Y-4024000D01*
X4651787Y-4026000D01*
X4651000Y-4026000D01*
X4651000Y-4026787D01*
X4649000Y-4026787D01*
X4649000Y-4026000D01*
X4589750Y-4026000D01*
X4581000Y-4034750D01*
X4581000Y-4046000D01*
X4562012Y-4046000D01*
X4557173Y-4041161D01*
X4558990Y-4036787D01*
X4559010Y-4013316D01*
X4550047Y-3991623D01*
X4533464Y-3975011D01*
X4511787Y-3966010D01*
X4488316Y-3965990D01*
X4466623Y-3974953D01*
X4450011Y-3991536D01*
X4441010Y-4013213D01*
X4440990Y-4036684D01*
X4449953Y-4058377D01*
X4466536Y-4074989D01*
X4488213Y-4083990D01*
X4511684Y-4084010D01*
X4516152Y-4082164D01*
X4521000Y-4087012D01*
X4521000Y-4100000D01*
X4523207Y-4111098D01*
X4529494Y-4120506D01*
X4617826Y-4208839D01*
X4616010Y-4213213D01*
X4615990Y-4236684D01*
X4624953Y-4258377D01*
X4641536Y-4274989D01*
X4663213Y-4283990D01*
X4686684Y-4284010D01*
X4708377Y-4275047D01*
X4721000Y-4262446D01*
X4721000Y-4577586D01*
X4717846Y-4580739D01*
X4715539Y-4567502D01*
X4690449Y-4556366D01*
X4663008Y-4555678D01*
X4637392Y-4565544D01*
X4634461Y-4567502D01*
X4632154Y-4580739D01*
X4629000Y-4577586D01*
X4629000Y-4525000D01*
X4626793Y-4513902D01*
X4620506Y-4504494D01*
X4557173Y-4441161D01*
X4558990Y-4436787D01*
X4559010Y-4413316D01*
X4550047Y-4391623D01*
X4533464Y-4375011D01*
X4511787Y-4366010D01*
X4488316Y-4365990D01*
X4466623Y-4374953D01*
X4450011Y-4391536D01*
X4441010Y-4413213D01*
X4440990Y-4436684D01*
X4449953Y-4458377D01*
X4466536Y-4474989D01*
X4488213Y-4483990D01*
X4511684Y-4484010D01*
X4516152Y-4482164D01*
X4571000Y-4537012D01*
X4571000Y-4553063D01*
X4570762Y-4552824D01*
X4564637Y-4558948D01*
X4562871Y-4546173D01*
X4539390Y-4535778D01*
X4513718Y-4535160D01*
X4489763Y-4544413D01*
X4487129Y-4546173D01*
X4485363Y-4558948D01*
X4525000Y-4598586D01*
X4525557Y-4598029D01*
X4526971Y-4599443D01*
X4526414Y-4600000D01*
X4526971Y-4600557D01*
X4525557Y-4601971D01*
X4525000Y-4601414D01*
X4485363Y-4641052D01*
X4487129Y-4653827D01*
X4510610Y-4664222D01*
X4536282Y-4664840D01*
X4560237Y-4655587D01*
X4562871Y-4653827D01*
X4564637Y-4641052D01*
X4564637Y-4641052D01*
X4570762Y-4647176D01*
X4571000Y-4646937D01*
X4571000Y-4850000D01*
X4573207Y-4861098D01*
X4579494Y-4870506D01*
X4771000Y-5062012D01*
X4771000Y-5072500D01*
X4767527Y-5072500D01*
X4758339Y-5076306D01*
X4751306Y-5083339D01*
X4747500Y-5092527D01*
X4747500Y-5102473D01*
X4747500Y-5157473D01*
X4751306Y-5166661D01*
X4758339Y-5173694D01*
X4763023Y-5175634D01*
X4761841Y-5185427D01*
X4800000Y-5223586D01*
X4800557Y-5223029D01*
X4801971Y-5224443D01*
X4801414Y-5225000D01*
X4801971Y-5225557D01*
X4800557Y-5226971D01*
X4800000Y-5226414D01*
X4799443Y-5226971D01*
X4798029Y-5225557D01*
X4798586Y-5225000D01*
X4760427Y-5186841D01*
X4747864Y-5188357D01*
X4737810Y-5211098D01*
X4737224Y-5235955D01*
X4746195Y-5259145D01*
X4747656Y-5261331D01*
X4729494Y-5279494D01*
X4723207Y-5288902D01*
X4721000Y-5300000D01*
X4721000Y-5375000D01*
X4723207Y-5386098D01*
X4729494Y-5395506D01*
X4747800Y-5413812D01*
X4747509Y-5414511D01*
X4747491Y-5435397D01*
X4755467Y-5454700D01*
X4770222Y-5469481D01*
X4789511Y-5477491D01*
X4810397Y-5477509D01*
X4829700Y-5469533D01*
X4844481Y-5454778D01*
X4852491Y-5435489D01*
X4852509Y-5414603D01*
X4844533Y-5395300D01*
X4829778Y-5380519D01*
X4816478Y-5374996D01*
X4828571Y-5370000D01*
X4831360Y-5370000D01*
X4855000Y-5393640D01*
X4855000Y-5517843D01*
X4853782Y-5519060D01*
X4845459Y-5539102D01*
X4845441Y-5560803D01*
X4853728Y-5580860D01*
X4869060Y-5596218D01*
X4870628Y-5596870D01*
X4863902Y-5598207D01*
X4854494Y-5604494D01*
X4787757Y-5671231D01*
X4785898Y-5670459D01*
X4764197Y-5670441D01*
X4744140Y-5678728D01*
X4728782Y-5694060D01*
X4720459Y-5714102D01*
X4720441Y-5735803D01*
X4728728Y-5755860D01*
X4744060Y-5771218D01*
X4764102Y-5779541D01*
X4785803Y-5779559D01*
X4805860Y-5771272D01*
X4821218Y-5755940D01*
X4824999Y-5746835D01*
X4828728Y-5755860D01*
X4844060Y-5771218D01*
X4864102Y-5779541D01*
X4885803Y-5779559D01*
X4905860Y-5771272D01*
X4921218Y-5755940D01*
X4929541Y-5735898D01*
X4929559Y-5714197D01*
X4921272Y-5694140D01*
X4905940Y-5678782D01*
X4885898Y-5670459D01*
X4870566Y-5670446D01*
X4887012Y-5654000D01*
X4900000Y-5654000D01*
X4911098Y-5651793D01*
X4920506Y-5645506D01*
X4962168Y-5603844D01*
X4985610Y-5614222D01*
X5011282Y-5614840D01*
X5035237Y-5605587D01*
X5037871Y-5603827D01*
X5039637Y-5591052D01*
X5000000Y-5551414D01*
X4999443Y-5551971D01*
X4998029Y-5550557D01*
X4998586Y-5550000D01*
X4998029Y-5549443D01*
X4999443Y-5548029D01*
X5000000Y-5548586D01*
X5039637Y-5508948D01*
X5037871Y-5496173D01*
X5014390Y-5485778D01*
X4988718Y-5485160D01*
X4979000Y-5488913D01*
X4979000Y-5187012D01*
X5037397Y-5128615D01*
X5037224Y-5135955D01*
X5046195Y-5159145D01*
X5047864Y-5161643D01*
X5060427Y-5163159D01*
X5098586Y-5125000D01*
X5098029Y-5124443D01*
X5099443Y-5123029D01*
X5100000Y-5123586D01*
X5138159Y-5085427D01*
X5136643Y-5072864D01*
X5113902Y-5062810D01*
X5103448Y-5062564D01*
X5120506Y-5045506D01*
X5126793Y-5036098D01*
X5126793Y-5036098D01*
X5129000Y-5025000D01*
X5129000Y-4869823D01*
X5129700Y-4869533D01*
X5144481Y-4854778D01*
X5152491Y-4835489D01*
X5152509Y-4814603D01*
X5144533Y-4795300D01*
X5129778Y-4780519D01*
X5116478Y-4774996D01*
X5129700Y-4769533D01*
X5144481Y-4754778D01*
X5152491Y-4735489D01*
X5152509Y-4714603D01*
X5144533Y-4695300D01*
X5129778Y-4680519D01*
X5116478Y-4674996D01*
X5129700Y-4669533D01*
X5144481Y-4654778D01*
X5144804Y-4654000D01*
X5193898Y-4654000D01*
X5200894Y-4661009D01*
X5216509Y-4667493D01*
X5233417Y-4667507D01*
X5249043Y-4661051D01*
X5261009Y-4649106D01*
X5267493Y-4633491D01*
X5267507Y-4616583D01*
X5261051Y-4600957D01*
X5249106Y-4588991D01*
X5233491Y-4582507D01*
X5216583Y-4582493D01*
X5200957Y-4588949D01*
X5193894Y-4596000D01*
X5144823Y-4596000D01*
X5144533Y-4595300D01*
X5129778Y-4580519D01*
X5116478Y-4574996D01*
X5129700Y-4569533D01*
X5144481Y-4554778D01*
X5152491Y-4535489D01*
X5152509Y-4514603D01*
X5144533Y-4495300D01*
X5129778Y-4480519D01*
X5116478Y-4474996D01*
X5129700Y-4469533D01*
X5144481Y-4454778D01*
X5144804Y-4454000D01*
X5162988Y-4454000D01*
X5271000Y-4562012D01*
X5271000Y-5162569D01*
X5258464Y-5150011D01*
X5236787Y-5141010D01*
X5213316Y-5140990D01*
X5191623Y-5149953D01*
X5175011Y-5166536D01*
X5166010Y-5188213D01*
X5165990Y-5211684D01*
X5174953Y-5233377D01*
X5180000Y-5238433D01*
X5180000Y-5356360D01*
X5162776Y-5373585D01*
X5162776Y-5114045D01*
X5153805Y-5090855D01*
X5152136Y-5088357D01*
X5139573Y-5086841D01*
X5101414Y-5125000D01*
X5139573Y-5163159D01*
X5152136Y-5161643D01*
X5162190Y-5138902D01*
X5162776Y-5114045D01*
X5162776Y-5373585D01*
X5156360Y-5380000D01*
X5128529Y-5380000D01*
X5116478Y-5374996D01*
X5129700Y-5369533D01*
X5144481Y-5354778D01*
X5152491Y-5335489D01*
X5152509Y-5314603D01*
X5144533Y-5295300D01*
X5129778Y-5280519D01*
X5116478Y-5274996D01*
X5129700Y-5269533D01*
X5144481Y-5254778D01*
X5152491Y-5235489D01*
X5152509Y-5214603D01*
X5144533Y-5195300D01*
X5129778Y-5180519D01*
X5129747Y-5180506D01*
X5134145Y-5178805D01*
X5136643Y-5177136D01*
X5138159Y-5164573D01*
X5100000Y-5126414D01*
X5061841Y-5164573D01*
X5063357Y-5177136D01*
X5070606Y-5180340D01*
X5070300Y-5180467D01*
X5055519Y-5195222D01*
X5047509Y-5214511D01*
X5047491Y-5235397D01*
X5055467Y-5254700D01*
X5070222Y-5269481D01*
X5083521Y-5275004D01*
X5070300Y-5280467D01*
X5055519Y-5295222D01*
X5047509Y-5314511D01*
X5047491Y-5335397D01*
X5055467Y-5354700D01*
X5070222Y-5369481D01*
X5083521Y-5375004D01*
X5070300Y-5380467D01*
X5055519Y-5395222D01*
X5047509Y-5414511D01*
X5047491Y-5435397D01*
X5055467Y-5454700D01*
X5070222Y-5469481D01*
X5089511Y-5477491D01*
X5110397Y-5477509D01*
X5128571Y-5470000D01*
X5175000Y-5470000D01*
X5192221Y-5466575D01*
X5206820Y-5456820D01*
X5256820Y-5406820D01*
X5266575Y-5392221D01*
X5270000Y-5375000D01*
X5270000Y-5238444D01*
X5271000Y-5237446D01*
X5271000Y-5512988D01*
X5241161Y-5542826D01*
X5236787Y-5541010D01*
X5213316Y-5540990D01*
X5191623Y-5549953D01*
X5175011Y-5566536D01*
X5166010Y-5588213D01*
X5165990Y-5611684D01*
X5174953Y-5633377D01*
X5191536Y-5649989D01*
X5213213Y-5658990D01*
X5236684Y-5659010D01*
X5258377Y-5650047D01*
X5274989Y-5633464D01*
X5283990Y-5611787D01*
X5284010Y-5588316D01*
X5282164Y-5583848D01*
X5320506Y-5545506D01*
X5326793Y-5536098D01*
X5326793Y-5536098D01*
X5329000Y-5525000D01*
X5329000Y-5237431D01*
X5330000Y-5238433D01*
X5330000Y-5375000D01*
X5333425Y-5392221D01*
X5343180Y-5406820D01*
X5405000Y-5468640D01*
X5405000Y-5548573D01*
X5386787Y-5541010D01*
X5363316Y-5540990D01*
X5341623Y-5549953D01*
X5325011Y-5566536D01*
X5316010Y-5588213D01*
X5315990Y-5611684D01*
X5324953Y-5633377D01*
X5341536Y-5649989D01*
X5363213Y-5658990D01*
X5386684Y-5659010D01*
X5405000Y-5651442D01*
X5405000Y-5660650D01*
X5380677Y-5660650D01*
X5371489Y-5664456D01*
X5364456Y-5671489D01*
X5360650Y-5680677D01*
X5360650Y-5690623D01*
X5360650Y-5769323D01*
X5364456Y-5778511D01*
X5371489Y-5785544D01*
X5380677Y-5789350D01*
X5390623Y-5789350D01*
X5447010Y-5789350D01*
X5447010Y-5789350D01*
G37*
X5447010Y-5789350D02*
X5431360Y-5805000D01*
X5089361Y-5805000D01*
X5089361Y-5712256D01*
X5079585Y-5688596D01*
X5064840Y-5673826D01*
X5064840Y-5538718D01*
X5055587Y-5514763D01*
X5053827Y-5512129D01*
X5041052Y-5510363D01*
X5001414Y-5550000D01*
X5041052Y-5589637D01*
X5053827Y-5587871D01*
X5064222Y-5564390D01*
X5064840Y-5538718D01*
X5064840Y-5673826D01*
X5061499Y-5670479D01*
X5037856Y-5660661D01*
X5012256Y-5660639D01*
X4988596Y-5670415D01*
X4970479Y-5688501D01*
X4960661Y-5712144D01*
X4960639Y-5737744D01*
X4970415Y-5761404D01*
X4988501Y-5779521D01*
X5012144Y-5789339D01*
X5037744Y-5789361D01*
X5061404Y-5779585D01*
X5079521Y-5761499D01*
X5089339Y-5737856D01*
X5089361Y-5712256D01*
X5089361Y-5805000D01*
X4709010Y-5805000D01*
X4709010Y-5513316D01*
X4709010Y-5113316D01*
X4700047Y-5091623D01*
X4683464Y-5075011D01*
X4661787Y-5066010D01*
X4638316Y-5065990D01*
X4616623Y-5074953D01*
X4600011Y-5091536D01*
X4591010Y-5113213D01*
X4590990Y-5136684D01*
X4599953Y-5158377D01*
X4616536Y-5174989D01*
X4638213Y-5183990D01*
X4661684Y-5184010D01*
X4683377Y-5175047D01*
X4699989Y-5158464D01*
X4708990Y-5136787D01*
X4709010Y-5113316D01*
X4709010Y-5513316D01*
X4700047Y-5491623D01*
X4683464Y-5475011D01*
X4661787Y-5466010D01*
X4638316Y-5465990D01*
X4616623Y-5474953D01*
X4600011Y-5491536D01*
X4591010Y-5513213D01*
X4590990Y-5536684D01*
X4599953Y-5558377D01*
X4616536Y-5574989D01*
X4638213Y-5583990D01*
X4661684Y-5584010D01*
X4683377Y-5575047D01*
X4699989Y-5558464D01*
X4708990Y-5536787D01*
X4709010Y-5513316D01*
X4709010Y-5805000D01*
X4589840Y-5805000D01*
X4589840Y-5313718D01*
X4589840Y-4938718D01*
X4580587Y-4914763D01*
X4578827Y-4912129D01*
X4566052Y-4910363D01*
X4565294Y-4911121D01*
X4565294Y-4763646D01*
X4564637Y-4761947D01*
X4555978Y-4739524D01*
X4554198Y-4736859D01*
X4541376Y-4735038D01*
X4501414Y-4775000D01*
X4541376Y-4814962D01*
X4554198Y-4813141D01*
X4564668Y-4789497D01*
X4565294Y-4763646D01*
X4565294Y-4911121D01*
X4564637Y-4911777D01*
X4564637Y-4908948D01*
X4562871Y-4896173D01*
X4539390Y-4885778D01*
X4513718Y-4885160D01*
X4489763Y-4894413D01*
X4487129Y-4896173D01*
X4485363Y-4908948D01*
X4525000Y-4948586D01*
X4564637Y-4908948D01*
X4564637Y-4911777D01*
X4526414Y-4950000D01*
X4566052Y-4989637D01*
X4578827Y-4987871D01*
X4589222Y-4964390D01*
X4589840Y-4938718D01*
X4589840Y-5313718D01*
X4580587Y-5289763D01*
X4578827Y-5287129D01*
X4566052Y-5285363D01*
X4565294Y-5286121D01*
X4565294Y-5113646D01*
X4564637Y-5111947D01*
X4564637Y-4991052D01*
X4525000Y-4951414D01*
X4485363Y-4991052D01*
X4487129Y-5003827D01*
X4510610Y-5014222D01*
X4536282Y-5014840D01*
X4560237Y-5005587D01*
X4562871Y-5003827D01*
X4564637Y-4991052D01*
X4564637Y-5111947D01*
X4555978Y-5089524D01*
X4554198Y-5086859D01*
X4541376Y-5085038D01*
X4501414Y-5125000D01*
X4541376Y-5164962D01*
X4554198Y-5163141D01*
X4564668Y-5139497D01*
X4565294Y-5113646D01*
X4565294Y-5286121D01*
X4564637Y-5286777D01*
X4564637Y-5283948D01*
X4562871Y-5271173D01*
X4539390Y-5260778D01*
X4513718Y-5260160D01*
X4489763Y-5269413D01*
X4487129Y-5271173D01*
X4485363Y-5283948D01*
X4525000Y-5323586D01*
X4564637Y-5283948D01*
X4564637Y-5286777D01*
X4526414Y-5325000D01*
X4566052Y-5364637D01*
X4578827Y-5362871D01*
X4589222Y-5339390D01*
X4589840Y-5313718D01*
X4589840Y-5805000D01*
X4568640Y-5805000D01*
X4564637Y-5800998D01*
X4564637Y-5366052D01*
X4525000Y-5326414D01*
X4485363Y-5366052D01*
X4487129Y-5378827D01*
X4510610Y-5389222D01*
X4536282Y-5389840D01*
X4560237Y-5380587D01*
X4562871Y-5378827D01*
X4564637Y-5366052D01*
X4564637Y-5800998D01*
X4470000Y-5706360D01*
X4470000Y-5361116D01*
X4471173Y-5362871D01*
X4483948Y-5364637D01*
X4523586Y-5325000D01*
X4483948Y-5285363D01*
X4471173Y-5287129D01*
X4470000Y-5289779D01*
X4470000Y-5207792D01*
X4471600Y-5206196D01*
X4479556Y-5187035D01*
X4485503Y-5189668D01*
X4511354Y-5190294D01*
X4535476Y-5180978D01*
X4538141Y-5179198D01*
X4539962Y-5166376D01*
X4500000Y-5126414D01*
X4499443Y-5126971D01*
X4498029Y-5125557D01*
X4498586Y-5125000D01*
X4498029Y-5124443D01*
X4499443Y-5123029D01*
X4500000Y-5123586D01*
X4539962Y-5083624D01*
X4538141Y-5070802D01*
X4514497Y-5060332D01*
X4488646Y-5059706D01*
X4479630Y-5063188D01*
X4471654Y-5043886D01*
X4470000Y-5042229D01*
X4470000Y-4986116D01*
X4471173Y-4987871D01*
X4483948Y-4989637D01*
X4523586Y-4950000D01*
X4483948Y-4910363D01*
X4471173Y-4912129D01*
X4470000Y-4914779D01*
X4470000Y-4857792D01*
X4471600Y-4856196D01*
X4479556Y-4837035D01*
X4485503Y-4839668D01*
X4511354Y-4840294D01*
X4535476Y-4830978D01*
X4538141Y-4829198D01*
X4539962Y-4816376D01*
X4500000Y-4776414D01*
X4499443Y-4776971D01*
X4498029Y-4775557D01*
X4498586Y-4775000D01*
X4498029Y-4774443D01*
X4499443Y-4773029D01*
X4500000Y-4773586D01*
X4539962Y-4733624D01*
X4538141Y-4720802D01*
X4514497Y-4710332D01*
X4488646Y-4709706D01*
X4479630Y-4713188D01*
X4471654Y-4693886D01*
X4470000Y-4692229D01*
X4470000Y-4636116D01*
X4471173Y-4637871D01*
X4483948Y-4639637D01*
X4523586Y-4600000D01*
X4483948Y-4560363D01*
X4471173Y-4562129D01*
X4469053Y-4566917D01*
X4455940Y-4553782D01*
X4435898Y-4545459D01*
X4414197Y-4545441D01*
X4394140Y-4553728D01*
X4378782Y-4569060D01*
X4370459Y-4589102D01*
X4370441Y-4610803D01*
X4378728Y-4630860D01*
X4380000Y-4632134D01*
X4380000Y-4692208D01*
X4378400Y-4693804D01*
X4370010Y-4714012D01*
X4369990Y-4735892D01*
X4378346Y-4756114D01*
X4393804Y-4771600D01*
X4401989Y-4774998D01*
X4393886Y-4778346D01*
X4378400Y-4793804D01*
X4370010Y-4814012D01*
X4369990Y-4835892D01*
X4378346Y-4856114D01*
X4380000Y-4857771D01*
X4380000Y-4917843D01*
X4378782Y-4919060D01*
X4370459Y-4939102D01*
X4370441Y-4960803D01*
X4378728Y-4980860D01*
X4380000Y-4982134D01*
X4380000Y-5042208D01*
X4378400Y-5043804D01*
X4370010Y-5064012D01*
X4369990Y-5085892D01*
X4378346Y-5106114D01*
X4393804Y-5121600D01*
X4401989Y-5124998D01*
X4393886Y-5128346D01*
X4378400Y-5143804D01*
X4370010Y-5164012D01*
X4369990Y-5185892D01*
X4378346Y-5206114D01*
X4380000Y-5207771D01*
X4380000Y-5292843D01*
X4378782Y-5294060D01*
X4370459Y-5314102D01*
X4370441Y-5335803D01*
X4378728Y-5355860D01*
X4380000Y-5357134D01*
X4380000Y-5725000D01*
X4383425Y-5742221D01*
X4393180Y-5756820D01*
X4514904Y-5878543D01*
X4309000Y-5878543D01*
X4309000Y-5438973D01*
X4309000Y-5429027D01*
X4309000Y-5361027D01*
X4305194Y-5351839D01*
X4298161Y-5344806D01*
X4288973Y-5341000D01*
X4279073Y-5341000D01*
X4279073Y-4809906D01*
X4276993Y-4804520D01*
X4276993Y-4105517D01*
X4255252Y-4052899D01*
X4215030Y-4012606D01*
X4162450Y-3990773D01*
X4105517Y-3990723D01*
X4052899Y-4012465D01*
X4012606Y-4052687D01*
X3990773Y-4105267D01*
X3990723Y-4162200D01*
X4012465Y-4214818D01*
X4052687Y-4255110D01*
X4105267Y-4276944D01*
X4162200Y-4276993D01*
X4214818Y-4255252D01*
X4255110Y-4215030D01*
X4276944Y-4162450D01*
X4276993Y-4105517D01*
X4276993Y-4804520D01*
X4269758Y-4785783D01*
X4268789Y-4784333D01*
X4268789Y-4710368D01*
X4260433Y-4690146D01*
X4244975Y-4674660D01*
X4224768Y-4666269D01*
X4202887Y-4666250D01*
X4182665Y-4674606D01*
X4168780Y-4688467D01*
X4168780Y-4686287D01*
X4164974Y-4677099D01*
X4157941Y-4670066D01*
X4148752Y-4666260D01*
X4138807Y-4666260D01*
X4078807Y-4666260D01*
X4069618Y-4670066D01*
X4062586Y-4677098D01*
X4058780Y-4686287D01*
X4058780Y-4696233D01*
X4058780Y-4756233D01*
X4062586Y-4765421D01*
X4069618Y-4772454D01*
X4074581Y-4774509D01*
X4073818Y-4779884D01*
X4113780Y-4819846D01*
X4153741Y-4779884D01*
X4152978Y-4774509D01*
X4157941Y-4772454D01*
X4164974Y-4765421D01*
X4168780Y-4756233D01*
X4168780Y-4754031D01*
X4179535Y-4764806D01*
X4178303Y-4765281D01*
X4175638Y-4767062D01*
X4173818Y-4779884D01*
X4213780Y-4819846D01*
X4253741Y-4779884D01*
X4251921Y-4767062D01*
X4247644Y-4765168D01*
X4260379Y-4752456D01*
X4268770Y-4732248D01*
X4268789Y-4710368D01*
X4268789Y-4784333D01*
X4267978Y-4783119D01*
X4255156Y-4781298D01*
X4215194Y-4821260D01*
X4255156Y-4861222D01*
X4267978Y-4859401D01*
X4278448Y-4835757D01*
X4279073Y-4809906D01*
X4279073Y-5341000D01*
X4279027Y-5341000D01*
X4211027Y-5341000D01*
X4201839Y-5344806D01*
X4194806Y-5351839D01*
X4192015Y-5358577D01*
X4183464Y-5350011D01*
X4179000Y-5348158D01*
X4179000Y-5225000D01*
X4176793Y-5213902D01*
X4170506Y-5204494D01*
X4137133Y-5171121D01*
X4144894Y-5167914D01*
X4160379Y-5152456D01*
X4163778Y-5144271D01*
X4167126Y-5152374D01*
X4182584Y-5167859D01*
X4202791Y-5176250D01*
X4224672Y-5176269D01*
X4244894Y-5167914D01*
X4260379Y-5152456D01*
X4268770Y-5132248D01*
X4268789Y-5110368D01*
X4260433Y-5090146D01*
X4244975Y-5074660D01*
X4236791Y-5071262D01*
X4244894Y-5067914D01*
X4260379Y-5052456D01*
X4268770Y-5032248D01*
X4268789Y-5010368D01*
X4260433Y-4990146D01*
X4244975Y-4974660D01*
X4236791Y-4971262D01*
X4244894Y-4967914D01*
X4260379Y-4952456D01*
X4268770Y-4932248D01*
X4268789Y-4910368D01*
X4260433Y-4890146D01*
X4248024Y-4877714D01*
X4249256Y-4877238D01*
X4251921Y-4875458D01*
X4253741Y-4862636D01*
X4213780Y-4822674D01*
X4212365Y-4824088D01*
X4212365Y-4821260D01*
X4172403Y-4781298D01*
X4163780Y-4782523D01*
X4155156Y-4781298D01*
X4115194Y-4821260D01*
X4155156Y-4861222D01*
X4163780Y-4859997D01*
X4172403Y-4861222D01*
X4212365Y-4821260D01*
X4212365Y-4824088D01*
X4173818Y-4862636D01*
X4175638Y-4875458D01*
X4179915Y-4877352D01*
X4167180Y-4890064D01*
X4163781Y-4898249D01*
X4160433Y-4890146D01*
X4148024Y-4877714D01*
X4149256Y-4877238D01*
X4151921Y-4875458D01*
X4153741Y-4862636D01*
X4113780Y-4822674D01*
X4112365Y-4824088D01*
X4112365Y-4821260D01*
X4072403Y-4781298D01*
X4059582Y-4783119D01*
X4049111Y-4806763D01*
X4048486Y-4832614D01*
X4057801Y-4856736D01*
X4059582Y-4859401D01*
X4072403Y-4861222D01*
X4112365Y-4821260D01*
X4112365Y-4824088D01*
X4073818Y-4862636D01*
X4075638Y-4875458D01*
X4079915Y-4877352D01*
X4067180Y-4890064D01*
X4058789Y-4910272D01*
X4058770Y-4932152D01*
X4059678Y-4934349D01*
X4029494Y-4964533D01*
X4023207Y-4973942D01*
X4021000Y-4985039D01*
X4021000Y-5125000D01*
X4023207Y-5136098D01*
X4029494Y-5145506D01*
X4121000Y-5237012D01*
X4121000Y-5348144D01*
X4116623Y-5349953D01*
X4100011Y-5366536D01*
X4099996Y-5366572D01*
X4083464Y-5350011D01*
X4061787Y-5341010D01*
X4038316Y-5340990D01*
X4016623Y-5349953D01*
X4000011Y-5366536D01*
X3991010Y-5388213D01*
X3990990Y-5411684D01*
X3999953Y-5433377D01*
X4016536Y-5449989D01*
X4038213Y-5458990D01*
X4061684Y-5459010D01*
X4083377Y-5450047D01*
X4099989Y-5433464D01*
X4100004Y-5433428D01*
X4116536Y-5449989D01*
X4138213Y-5458990D01*
X4161684Y-5459010D01*
X4183377Y-5450047D01*
X4192015Y-5441424D01*
X4194806Y-5448161D01*
X4201839Y-5455194D01*
X4211027Y-5459000D01*
X4220973Y-5459000D01*
X4288973Y-5459000D01*
X4298161Y-5455194D01*
X4305194Y-5448161D01*
X4309000Y-5438973D01*
X4309000Y-5878543D01*
X4276993Y-5878543D01*
X4276993Y-5680320D01*
X4255252Y-5627702D01*
X4215030Y-5587409D01*
X4162450Y-5565576D01*
X4105517Y-5565526D01*
X4052899Y-5587268D01*
X4012606Y-5627490D01*
X3990773Y-5680070D01*
X3990723Y-5737003D01*
X4012465Y-5789621D01*
X4052687Y-5829914D01*
X4105267Y-5851747D01*
X4162200Y-5851796D01*
X4214818Y-5830055D01*
X4255110Y-5789833D01*
X4276944Y-5737253D01*
X4276993Y-5680320D01*
X4276993Y-5878543D01*
X3963976Y-5878543D01*
X3963976Y-3963976D01*
X4593526Y-3963976D01*
X4586328Y-3971174D01*
X4581000Y-3984038D01*
X4581000Y-3997962D01*
X4581000Y-4015250D01*
X4589750Y-4024000D01*
X4649000Y-4024000D01*
X4649000Y-4023213D01*
X4651000Y-4023213D01*
X4651000Y-4024000D01*
X4651787Y-4024000D01*
X4651787Y-4026000D01*
X4651000Y-4026000D01*
X4651000Y-4026787D01*
X4649000Y-4026787D01*
X4649000Y-4026000D01*
X4589750Y-4026000D01*
X4581000Y-4034750D01*
X4581000Y-4046000D01*
X4562012Y-4046000D01*
X4557173Y-4041161D01*
X4558990Y-4036787D01*
X4559010Y-4013316D01*
X4550047Y-3991623D01*
X4533464Y-3975011D01*
X4511787Y-3966010D01*
X4488316Y-3965990D01*
X4466623Y-3974953D01*
X4450011Y-3991536D01*
X4441010Y-4013213D01*
X4440990Y-4036684D01*
X4449953Y-4058377D01*
X4466536Y-4074989D01*
X4488213Y-4083990D01*
X4511684Y-4084010D01*
X4516152Y-4082164D01*
X4521000Y-4087012D01*
X4521000Y-4100000D01*
X4523207Y-4111098D01*
X4529494Y-4120506D01*
X4617826Y-4208839D01*
X4616010Y-4213213D01*
X4615990Y-4236684D01*
X4624953Y-4258377D01*
X4641536Y-4274989D01*
X4663213Y-4283990D01*
X4686684Y-4284010D01*
X4708377Y-4275047D01*
X4721000Y-4262446D01*
X4721000Y-4577586D01*
X4717846Y-4580739D01*
X4715539Y-4567502D01*
X4690449Y-4556366D01*
X4663008Y-4555678D01*
X4637392Y-4565544D01*
X4634461Y-4567502D01*
X4632154Y-4580739D01*
X4629000Y-4577586D01*
X4629000Y-4525000D01*
X4626793Y-4513902D01*
X4620506Y-4504494D01*
X4557173Y-4441161D01*
X4558990Y-4436787D01*
X4559010Y-4413316D01*
X4550047Y-4391623D01*
X4533464Y-4375011D01*
X4511787Y-4366010D01*
X4488316Y-4365990D01*
X4466623Y-4374953D01*
X4450011Y-4391536D01*
X4441010Y-4413213D01*
X4440990Y-4436684D01*
X4449953Y-4458377D01*
X4466536Y-4474989D01*
X4488213Y-4483990D01*
X4511684Y-4484010D01*
X4516152Y-4482164D01*
X4571000Y-4537012D01*
X4571000Y-4553063D01*
X4570762Y-4552824D01*
X4564637Y-4558948D01*
X4562871Y-4546173D01*
X4539390Y-4535778D01*
X4513718Y-4535160D01*
X4489763Y-4544413D01*
X4487129Y-4546173D01*
X4485363Y-4558948D01*
X4525000Y-4598586D01*
X4525557Y-4598029D01*
X4526971Y-4599443D01*
X4526414Y-4600000D01*
X4526971Y-4600557D01*
X4525557Y-4601971D01*
X4525000Y-4601414D01*
X4485363Y-4641052D01*
X4487129Y-4653827D01*
X4510610Y-4664222D01*
X4536282Y-4664840D01*
X4560237Y-4655587D01*
X4562871Y-4653827D01*
X4564637Y-4641052D01*
X4564637Y-4641052D01*
X4570762Y-4647176D01*
X4571000Y-4646937D01*
X4571000Y-4850000D01*
X4573207Y-4861098D01*
X4579494Y-4870506D01*
X4771000Y-5062012D01*
X4771000Y-5072500D01*
X4767527Y-5072500D01*
X4758339Y-5076306D01*
X4751306Y-5083339D01*
X4747500Y-5092527D01*
X4747500Y-5102473D01*
X4747500Y-5157473D01*
X4751306Y-5166661D01*
X4758339Y-5173694D01*
X4763023Y-5175634D01*
X4761841Y-5185427D01*
X4800000Y-5223586D01*
X4800557Y-5223029D01*
X4801971Y-5224443D01*
X4801414Y-5225000D01*
X4801971Y-5225557D01*
X4800557Y-5226971D01*
X4800000Y-5226414D01*
X4799443Y-5226971D01*
X4798029Y-5225557D01*
X4798586Y-5225000D01*
X4760427Y-5186841D01*
X4747864Y-5188357D01*
X4737810Y-5211098D01*
X4737224Y-5235955D01*
X4746195Y-5259145D01*
X4747656Y-5261331D01*
X4729494Y-5279494D01*
X4723207Y-5288902D01*
X4721000Y-5300000D01*
X4721000Y-5375000D01*
X4723207Y-5386098D01*
X4729494Y-5395506D01*
X4747800Y-5413812D01*
X4747509Y-5414511D01*
X4747491Y-5435397D01*
X4755467Y-5454700D01*
X4770222Y-5469481D01*
X4789511Y-5477491D01*
X4810397Y-5477509D01*
X4829700Y-5469533D01*
X4844481Y-5454778D01*
X4852491Y-5435489D01*
X4852509Y-5414603D01*
X4844533Y-5395300D01*
X4829778Y-5380519D01*
X4816478Y-5374996D01*
X4828571Y-5370000D01*
X4831360Y-5370000D01*
X4855000Y-5393640D01*
X4855000Y-5517843D01*
X4853782Y-5519060D01*
X4845459Y-5539102D01*
X4845441Y-5560803D01*
X4853728Y-5580860D01*
X4869060Y-5596218D01*
X4870628Y-5596870D01*
X4863902Y-5598207D01*
X4854494Y-5604494D01*
X4787757Y-5671231D01*
X4785898Y-5670459D01*
X4764197Y-5670441D01*
X4744140Y-5678728D01*
X4728782Y-5694060D01*
X4720459Y-5714102D01*
X4720441Y-5735803D01*
X4728728Y-5755860D01*
X4744060Y-5771218D01*
X4764102Y-5779541D01*
X4785803Y-5779559D01*
X4805860Y-5771272D01*
X4821218Y-5755940D01*
X4824999Y-5746835D01*
X4828728Y-5755860D01*
X4844060Y-5771218D01*
X4864102Y-5779541D01*
X4885803Y-5779559D01*
X4905860Y-5771272D01*
X4921218Y-5755940D01*
X4929541Y-5735898D01*
X4929559Y-5714197D01*
X4921272Y-5694140D01*
X4905940Y-5678782D01*
X4885898Y-5670459D01*
X4870566Y-5670446D01*
X4887012Y-5654000D01*
X4900000Y-5654000D01*
X4911098Y-5651793D01*
X4920506Y-5645506D01*
X4962168Y-5603844D01*
X4985610Y-5614222D01*
X5011282Y-5614840D01*
X5035237Y-5605587D01*
X5037871Y-5603827D01*
X5039637Y-5591052D01*
X5000000Y-5551414D01*
X4999443Y-5551971D01*
X4998029Y-5550557D01*
X4998586Y-5550000D01*
X4998029Y-5549443D01*
X4999443Y-5548029D01*
X5000000Y-5548586D01*
X5039637Y-5508948D01*
X5037871Y-5496173D01*
X5014390Y-5485778D01*
X4988718Y-5485160D01*
X4979000Y-5488913D01*
X4979000Y-5187012D01*
X5037397Y-5128615D01*
X5037224Y-5135955D01*
X5046195Y-5159145D01*
X5047864Y-5161643D01*
X5060427Y-5163159D01*
X5098586Y-5125000D01*
X5098029Y-5124443D01*
X5099443Y-5123029D01*
X5100000Y-5123586D01*
X5138159Y-5085427D01*
X5136643Y-5072864D01*
X5113902Y-5062810D01*
X5103448Y-5062564D01*
X5120506Y-5045506D01*
X5126793Y-5036098D01*
X5126793Y-5036098D01*
X5129000Y-5025000D01*
X5129000Y-4869823D01*
X5129700Y-4869533D01*
X5144481Y-4854778D01*
X5152491Y-4835489D01*
X5152509Y-4814603D01*
X5144533Y-4795300D01*
X5129778Y-4780519D01*
X5116478Y-4774996D01*
X5129700Y-4769533D01*
X5144481Y-4754778D01*
X5152491Y-4735489D01*
X5152509Y-4714603D01*
X5144533Y-4695300D01*
X5129778Y-4680519D01*
X5116478Y-4674996D01*
X5129700Y-4669533D01*
X5144481Y-4654778D01*
X5144804Y-4654000D01*
X5193898Y-4654000D01*
X5200894Y-4661009D01*
X5216509Y-4667493D01*
X5233417Y-4667507D01*
X5249043Y-4661051D01*
X5261009Y-4649106D01*
X5267493Y-4633491D01*
X5267507Y-4616583D01*
X5261051Y-4600957D01*
X5249106Y-4588991D01*
X5233491Y-4582507D01*
X5216583Y-4582493D01*
X5200957Y-4588949D01*
X5193894Y-4596000D01*
X5144823Y-4596000D01*
X5144533Y-4595300D01*
X5129778Y-4580519D01*
X5116478Y-4574996D01*
X5129700Y-4569533D01*
X5144481Y-4554778D01*
X5152491Y-4535489D01*
X5152509Y-4514603D01*
X5144533Y-4495300D01*
X5129778Y-4480519D01*
X5116478Y-4474996D01*
X5129700Y-4469533D01*
X5144481Y-4454778D01*
X5144804Y-4454000D01*
X5162988Y-4454000D01*
X5271000Y-4562012D01*
X5271000Y-5162569D01*
X5258464Y-5150011D01*
X5236787Y-5141010D01*
X5213316Y-5140990D01*
X5191623Y-5149953D01*
X5175011Y-5166536D01*
X5166010Y-5188213D01*
X5165990Y-5211684D01*
X5174953Y-5233377D01*
X5180000Y-5238433D01*
X5180000Y-5356360D01*
X5162776Y-5373585D01*
X5162776Y-5114045D01*
X5153805Y-5090855D01*
X5152136Y-5088357D01*
X5139573Y-5086841D01*
X5101414Y-5125000D01*
X5139573Y-5163159D01*
X5152136Y-5161643D01*
X5162190Y-5138902D01*
X5162776Y-5114045D01*
X5162776Y-5373585D01*
X5156360Y-5380000D01*
X5128529Y-5380000D01*
X5116478Y-5374996D01*
X5129700Y-5369533D01*
X5144481Y-5354778D01*
X5152491Y-5335489D01*
X5152509Y-5314603D01*
X5144533Y-5295300D01*
X5129778Y-5280519D01*
X5116478Y-5274996D01*
X5129700Y-5269533D01*
X5144481Y-5254778D01*
X5152491Y-5235489D01*
X5152509Y-5214603D01*
X5144533Y-5195300D01*
X5129778Y-5180519D01*
X5129747Y-5180506D01*
X5134145Y-5178805D01*
X5136643Y-5177136D01*
X5138159Y-5164573D01*
X5100000Y-5126414D01*
X5061841Y-5164573D01*
X5063357Y-5177136D01*
X5070606Y-5180340D01*
X5070300Y-5180467D01*
X5055519Y-5195222D01*
X5047509Y-5214511D01*
X5047491Y-5235397D01*
X5055467Y-5254700D01*
X5070222Y-5269481D01*
X5083521Y-5275004D01*
X5070300Y-5280467D01*
X5055519Y-5295222D01*
X5047509Y-5314511D01*
X5047491Y-5335397D01*
X5055467Y-5354700D01*
X5070222Y-5369481D01*
X5083521Y-5375004D01*
X5070300Y-5380467D01*
X5055519Y-5395222D01*
X5047509Y-5414511D01*
X5047491Y-5435397D01*
X5055467Y-5454700D01*
X5070222Y-5469481D01*
X5089511Y-5477491D01*
X5110397Y-5477509D01*
X5128571Y-5470000D01*
X5175000Y-5470000D01*
X5192221Y-5466575D01*
X5206820Y-5456820D01*
X5256820Y-5406820D01*
X5266575Y-5392221D01*
X5270000Y-5375000D01*
X5270000Y-5238444D01*
X5271000Y-5237446D01*
X5271000Y-5512988D01*
X5241161Y-5542826D01*
X5236787Y-5541010D01*
X5213316Y-5540990D01*
X5191623Y-5549953D01*
X5175011Y-5566536D01*
X5166010Y-5588213D01*
X5165990Y-5611684D01*
X5174953Y-5633377D01*
X5191536Y-5649989D01*
X5213213Y-5658990D01*
X5236684Y-5659010D01*
X5258377Y-5650047D01*
X5274989Y-5633464D01*
X5283990Y-5611787D01*
X5284010Y-5588316D01*
X5282164Y-5583848D01*
X5320506Y-5545506D01*
X5326793Y-5536098D01*
X5326793Y-5536098D01*
X5329000Y-5525000D01*
X5329000Y-5237431D01*
X5330000Y-5238433D01*
X5330000Y-5375000D01*
X5333425Y-5392221D01*
X5343180Y-5406820D01*
X5405000Y-5468640D01*
X5405000Y-5548573D01*
X5386787Y-5541010D01*
X5363316Y-5540990D01*
X5341623Y-5549953D01*
X5325011Y-5566536D01*
X5316010Y-5588213D01*
X5315990Y-5611684D01*
X5324953Y-5633377D01*
X5341536Y-5649989D01*
X5363213Y-5658990D01*
X5386684Y-5659010D01*
X5405000Y-5651442D01*
X5405000Y-5660650D01*
X5380677Y-5660650D01*
X5371489Y-5664456D01*
X5364456Y-5671489D01*
X5360650Y-5680677D01*
X5360650Y-5690623D01*
X5360650Y-5769323D01*
X5364456Y-5778511D01*
X5371489Y-5785544D01*
X5380677Y-5789350D01*
X5390623Y-5789350D01*
X5447010Y-5789350D01*
G36*
X5646000Y-5562569D02*
X5633464Y-5550011D01*
X5629000Y-5548158D01*
X5629000Y-5425000D01*
X5626793Y-5413902D01*
X5620506Y-5404494D01*
X5529000Y-5312988D01*
X5529000Y-4995012D01*
X5646000Y-5112012D01*
X5646000Y-5162569D01*
X5633464Y-5150011D01*
X5611787Y-5141010D01*
X5588316Y-5140990D01*
X5566623Y-5149953D01*
X5550011Y-5166536D01*
X5541010Y-5188213D01*
X5540990Y-5211684D01*
X5549953Y-5233377D01*
X5566536Y-5249989D01*
X5588213Y-5258990D01*
X5611684Y-5259010D01*
X5633377Y-5250047D01*
X5646000Y-5237446D01*
X5646000Y-5562569D01*
X5646000Y-5562569D01*
G37*
X5646000Y-5562569D02*
X5633464Y-5550011D01*
X5629000Y-5548158D01*
X5629000Y-5425000D01*
X5626793Y-5413902D01*
X5620506Y-5404494D01*
X5529000Y-5312988D01*
X5529000Y-4995012D01*
X5646000Y-5112012D01*
X5646000Y-5162569D01*
X5633464Y-5150011D01*
X5611787Y-5141010D01*
X5588316Y-5140990D01*
X5566623Y-5149953D01*
X5550011Y-5166536D01*
X5541010Y-5188213D01*
X5540990Y-5211684D01*
X5549953Y-5233377D01*
X5566536Y-5249989D01*
X5588213Y-5258990D01*
X5611684Y-5259010D01*
X5633377Y-5250047D01*
X5646000Y-5237446D01*
X5646000Y-5562569D01*
G36*
X6216572Y-4650004D02*
X6200011Y-4666536D01*
X6191010Y-4688213D01*
X6190990Y-4711684D01*
X6192836Y-4716152D01*
X5979494Y-4929494D01*
X5973207Y-4938902D01*
X5971000Y-4950000D01*
X5971000Y-4973144D01*
X5966623Y-4974953D01*
X5950011Y-4991536D01*
X5941010Y-5013213D01*
X5940990Y-5036684D01*
X5949953Y-5058377D01*
X5966536Y-5074989D01*
X5971000Y-5076842D01*
X5971000Y-5100000D01*
X5973207Y-5111098D01*
X5979494Y-5120506D01*
X5981493Y-5122506D01*
X5964603Y-5122491D01*
X5945300Y-5130467D01*
X5930519Y-5145222D01*
X5922509Y-5164511D01*
X5922491Y-5185397D01*
X5926872Y-5196000D01*
X5912012Y-5196000D01*
X5800012Y-5084000D01*
X5811684Y-5084010D01*
X5833377Y-5075047D01*
X5849989Y-5058464D01*
X5858990Y-5036787D01*
X5859010Y-5013316D01*
X5857164Y-5008848D01*
X6216280Y-4649732D01*
X6216536Y-4649989D01*
X6216572Y-4650004D01*
X6216572Y-4650004D01*
G37*
X6216572Y-4650004D02*
X6200011Y-4666536D01*
X6191010Y-4688213D01*
X6190990Y-4711684D01*
X6192836Y-4716152D01*
X5979494Y-4929494D01*
X5973207Y-4938902D01*
X5971000Y-4950000D01*
X5971000Y-4973144D01*
X5966623Y-4974953D01*
X5950011Y-4991536D01*
X5941010Y-5013213D01*
X5940990Y-5036684D01*
X5949953Y-5058377D01*
X5966536Y-5074989D01*
X5971000Y-5076842D01*
X5971000Y-5100000D01*
X5973207Y-5111098D01*
X5979494Y-5120506D01*
X5981493Y-5122506D01*
X5964603Y-5122491D01*
X5945300Y-5130467D01*
X5930519Y-5145222D01*
X5922509Y-5164511D01*
X5922491Y-5185397D01*
X5926872Y-5196000D01*
X5912012Y-5196000D01*
X5800012Y-5084000D01*
X5811684Y-5084010D01*
X5833377Y-5075047D01*
X5849989Y-5058464D01*
X5858990Y-5036787D01*
X5859010Y-5013316D01*
X5857164Y-5008848D01*
X6216280Y-4649732D01*
X6216536Y-4649989D01*
X6216572Y-4650004D01*
G36*
X6251971Y-4900557D02*
X6250557Y-4901971D01*
X6250000Y-4901414D01*
X6248586Y-4902828D01*
X6248586Y-4900000D01*
X6205740Y-4857154D01*
X6192502Y-4859461D01*
X6181366Y-4884551D01*
X6180678Y-4911992D01*
X6190544Y-4937608D01*
X6192502Y-4940539D01*
X6205740Y-4942846D01*
X6248586Y-4900000D01*
X6248586Y-4902828D01*
X6207154Y-4944260D01*
X6209461Y-4957498D01*
X6234551Y-4968634D01*
X6246000Y-4968921D01*
X6246000Y-5130177D01*
X6245300Y-5130467D01*
X6230519Y-5145222D01*
X6224996Y-5158521D01*
X6219533Y-5145300D01*
X6204778Y-5130519D01*
X6185489Y-5122509D01*
X6164603Y-5122491D01*
X6145300Y-5130467D01*
X6130519Y-5145222D01*
X6124996Y-5158521D01*
X6119533Y-5145300D01*
X6104778Y-5130519D01*
X6085489Y-5122509D01*
X6064603Y-5122491D01*
X6063825Y-5122812D01*
X6029000Y-5087988D01*
X6029000Y-5076856D01*
X6033377Y-5075047D01*
X6049989Y-5058464D01*
X6058990Y-5036787D01*
X6059010Y-5013316D01*
X6050047Y-4991623D01*
X6033464Y-4975011D01*
X6029000Y-4973158D01*
X6029000Y-4962012D01*
X6191000Y-4800012D01*
X6190990Y-4811684D01*
X6199953Y-4833377D01*
X6209402Y-4842843D01*
X6207154Y-4855740D01*
X6250000Y-4898586D01*
X6250557Y-4898029D01*
X6251971Y-4899443D01*
X6251414Y-4900000D01*
X6251971Y-4900557D01*
X6251971Y-4900557D01*
G37*
X6251971Y-4900557D02*
X6250557Y-4901971D01*
X6250000Y-4901414D01*
X6248586Y-4902828D01*
X6248586Y-4900000D01*
X6205740Y-4857154D01*
X6192502Y-4859461D01*
X6181366Y-4884551D01*
X6180678Y-4911992D01*
X6190544Y-4937608D01*
X6192502Y-4940539D01*
X6205740Y-4942846D01*
X6248586Y-4900000D01*
X6248586Y-4902828D01*
X6207154Y-4944260D01*
X6209461Y-4957498D01*
X6234551Y-4968634D01*
X6246000Y-4968921D01*
X6246000Y-5130177D01*
X6245300Y-5130467D01*
X6230519Y-5145222D01*
X6224996Y-5158521D01*
X6219533Y-5145300D01*
X6204778Y-5130519D01*
X6185489Y-5122509D01*
X6164603Y-5122491D01*
X6145300Y-5130467D01*
X6130519Y-5145222D01*
X6124996Y-5158521D01*
X6119533Y-5145300D01*
X6104778Y-5130519D01*
X6085489Y-5122509D01*
X6064603Y-5122491D01*
X6063825Y-5122812D01*
X6029000Y-5087988D01*
X6029000Y-5076856D01*
X6033377Y-5075047D01*
X6049989Y-5058464D01*
X6058990Y-5036787D01*
X6059010Y-5013316D01*
X6050047Y-4991623D01*
X6033464Y-4975011D01*
X6029000Y-4973158D01*
X6029000Y-4962012D01*
X6191000Y-4800012D01*
X6190990Y-4811684D01*
X6199953Y-4833377D01*
X6209402Y-4842843D01*
X6207154Y-4855740D01*
X6250000Y-4898586D01*
X6250557Y-4898029D01*
X6251971Y-4899443D01*
X6251414Y-4900000D01*
X6251971Y-4900557D01*
G36*
X6346000Y-5130177D02*
X6345300Y-5130467D01*
X6330519Y-5145222D01*
X6324996Y-5158521D01*
X6319533Y-5145300D01*
X6304778Y-5130519D01*
X6304000Y-5130196D01*
X6304000Y-4962012D01*
X6312500Y-4953512D01*
X6346000Y-4987012D01*
X6346000Y-5130177D01*
X6346000Y-5130177D01*
G37*
X6346000Y-5130177D02*
X6345300Y-5130467D01*
X6330519Y-5145222D01*
X6324996Y-5158521D01*
X6319533Y-5145300D01*
X6304778Y-5130519D01*
X6304000Y-5130196D01*
X6304000Y-4962012D01*
X6312500Y-4953512D01*
X6346000Y-4987012D01*
X6346000Y-5130177D01*
G36*
X6358848Y-5225139D02*
X6354494Y-5229494D01*
X6348207Y-5238902D01*
X6346000Y-5250000D01*
X6346000Y-5430177D01*
X6345300Y-5430467D01*
X6330519Y-5445222D01*
X6324996Y-5458521D01*
X6319533Y-5445300D01*
X6304778Y-5430519D01*
X6285489Y-5422509D01*
X6264603Y-5422491D01*
X6245300Y-5430467D01*
X6230519Y-5445222D01*
X6224996Y-5458521D01*
X6219533Y-5445300D01*
X6204778Y-5430519D01*
X6185489Y-5422509D01*
X6164603Y-5422491D01*
X6145300Y-5430467D01*
X6130519Y-5445222D01*
X6124996Y-5458521D01*
X6119533Y-5445300D01*
X6104778Y-5430519D01*
X6085489Y-5422509D01*
X6064603Y-5422491D01*
X6045300Y-5430467D01*
X6030519Y-5445222D01*
X6027500Y-5452492D01*
X6027500Y-5442527D01*
X6023694Y-5433339D01*
X6016661Y-5426306D01*
X6007473Y-5422500D01*
X5997527Y-5422500D01*
X5942527Y-5422500D01*
X5933339Y-5426306D01*
X5926306Y-5433339D01*
X5922500Y-5442527D01*
X5922500Y-5446000D01*
X5875000Y-5446000D01*
X5863902Y-5448207D01*
X5854494Y-5454494D01*
X5766161Y-5542826D01*
X5761787Y-5541010D01*
X5738316Y-5540990D01*
X5729000Y-5544839D01*
X5729000Y-5255164D01*
X5738213Y-5258990D01*
X5761684Y-5259010D01*
X5783377Y-5250047D01*
X5799989Y-5233464D01*
X5808990Y-5211787D01*
X5809010Y-5188316D01*
X5800047Y-5166623D01*
X5783464Y-5150011D01*
X5761787Y-5141010D01*
X5738316Y-5140990D01*
X5729000Y-5144839D01*
X5729000Y-5095012D01*
X5879494Y-5245506D01*
X5888902Y-5251793D01*
X5900000Y-5254000D01*
X6125000Y-5254000D01*
X6136098Y-5251793D01*
X6145506Y-5245506D01*
X6163812Y-5227200D01*
X6164511Y-5227491D01*
X6185397Y-5227509D01*
X6204700Y-5219533D01*
X6219481Y-5204778D01*
X6225004Y-5191478D01*
X6230467Y-5204700D01*
X6245222Y-5219481D01*
X6264511Y-5227491D01*
X6285397Y-5227509D01*
X6304700Y-5219533D01*
X6319481Y-5204778D01*
X6325004Y-5191478D01*
X6330467Y-5204700D01*
X6345222Y-5219481D01*
X6358848Y-5225139D01*
X6358848Y-5225139D01*
G37*
X6358848Y-5225139D02*
X6354494Y-5229494D01*
X6348207Y-5238902D01*
X6346000Y-5250000D01*
X6346000Y-5430177D01*
X6345300Y-5430467D01*
X6330519Y-5445222D01*
X6324996Y-5458521D01*
X6319533Y-5445300D01*
X6304778Y-5430519D01*
X6285489Y-5422509D01*
X6264603Y-5422491D01*
X6245300Y-5430467D01*
X6230519Y-5445222D01*
X6224996Y-5458521D01*
X6219533Y-5445300D01*
X6204778Y-5430519D01*
X6185489Y-5422509D01*
X6164603Y-5422491D01*
X6145300Y-5430467D01*
X6130519Y-5445222D01*
X6124996Y-5458521D01*
X6119533Y-5445300D01*
X6104778Y-5430519D01*
X6085489Y-5422509D01*
X6064603Y-5422491D01*
X6045300Y-5430467D01*
X6030519Y-5445222D01*
X6027500Y-5452492D01*
X6027500Y-5442527D01*
X6023694Y-5433339D01*
X6016661Y-5426306D01*
X6007473Y-5422500D01*
X5997527Y-5422500D01*
X5942527Y-5422500D01*
X5933339Y-5426306D01*
X5926306Y-5433339D01*
X5922500Y-5442527D01*
X5922500Y-5446000D01*
X5875000Y-5446000D01*
X5863902Y-5448207D01*
X5854494Y-5454494D01*
X5766161Y-5542826D01*
X5761787Y-5541010D01*
X5738316Y-5540990D01*
X5729000Y-5544839D01*
X5729000Y-5255164D01*
X5738213Y-5258990D01*
X5761684Y-5259010D01*
X5783377Y-5250047D01*
X5799989Y-5233464D01*
X5808990Y-5211787D01*
X5809010Y-5188316D01*
X5800047Y-5166623D01*
X5783464Y-5150011D01*
X5761787Y-5141010D01*
X5738316Y-5140990D01*
X5729000Y-5144839D01*
X5729000Y-5095012D01*
X5879494Y-5245506D01*
X5888902Y-5251793D01*
X5900000Y-5254000D01*
X6125000Y-5254000D01*
X6136098Y-5251793D01*
X6145506Y-5245506D01*
X6163812Y-5227200D01*
X6164511Y-5227491D01*
X6185397Y-5227509D01*
X6204700Y-5219533D01*
X6219481Y-5204778D01*
X6225004Y-5191478D01*
X6230467Y-5204700D01*
X6245222Y-5219481D01*
X6264511Y-5227491D01*
X6285397Y-5227509D01*
X6304700Y-5219533D01*
X6319481Y-5204778D01*
X6325004Y-5191478D01*
X6330467Y-5204700D01*
X6345222Y-5219481D01*
X6358848Y-5225139D01*
G36*
X6846000Y-5130177D02*
X6845300Y-5130467D01*
X6830519Y-5145222D01*
X6824996Y-5158521D01*
X6819533Y-5145300D01*
X6804778Y-5130519D01*
X6785489Y-5122509D01*
X6764603Y-5122491D01*
X6745300Y-5130467D01*
X6730519Y-5145222D01*
X6724996Y-5158521D01*
X6720000Y-5146429D01*
X6720000Y-5107157D01*
X6721218Y-5105940D01*
X6729541Y-5085898D01*
X6729559Y-5064197D01*
X6721272Y-5044140D01*
X6705940Y-5028782D01*
X6685898Y-5020459D01*
X6664197Y-5020441D01*
X6644140Y-5028728D01*
X6631282Y-5041563D01*
X6630587Y-5039763D01*
X6628827Y-5037129D01*
X6616052Y-5035363D01*
X6614637Y-5036777D01*
X6614637Y-5033948D01*
X6612871Y-5021173D01*
X6589390Y-5010778D01*
X6563718Y-5010160D01*
X6544322Y-5017652D01*
X6544322Y-4888008D01*
X6534456Y-4862392D01*
X6532498Y-4859461D01*
X6519260Y-4857154D01*
X6476414Y-4900000D01*
X6519260Y-4942846D01*
X6532498Y-4940539D01*
X6543634Y-4915449D01*
X6544322Y-4888008D01*
X6544322Y-5017652D01*
X6539763Y-5019413D01*
X6537129Y-5021173D01*
X6535363Y-5033948D01*
X6575000Y-5073586D01*
X6614637Y-5033948D01*
X6614637Y-5036777D01*
X6576414Y-5075000D01*
X6616052Y-5114637D01*
X6628827Y-5112871D01*
X6630000Y-5110221D01*
X6630000Y-5143945D01*
X6628805Y-5140855D01*
X6627136Y-5138357D01*
X6614637Y-5136848D01*
X6614637Y-5116052D01*
X6575000Y-5076414D01*
X6573586Y-5077828D01*
X6573586Y-5075000D01*
X6533948Y-5035363D01*
X6521173Y-5037129D01*
X6510778Y-5060610D01*
X6510160Y-5086282D01*
X6519413Y-5110237D01*
X6521173Y-5112871D01*
X6533948Y-5114637D01*
X6573586Y-5075000D01*
X6573586Y-5077828D01*
X6535363Y-5116052D01*
X6537129Y-5128827D01*
X6537612Y-5129041D01*
X6536841Y-5135427D01*
X6575000Y-5173586D01*
X6613159Y-5135427D01*
X6612400Y-5129141D01*
X6612871Y-5128827D01*
X6614637Y-5116052D01*
X6614637Y-5136848D01*
X6614573Y-5136841D01*
X6576414Y-5175000D01*
X6614573Y-5213159D01*
X6627136Y-5211643D01*
X6630000Y-5205164D01*
X6630000Y-5356360D01*
X6613159Y-5373201D01*
X6613159Y-5214573D01*
X6575000Y-5176414D01*
X6536841Y-5214573D01*
X6538357Y-5227136D01*
X6561098Y-5237190D01*
X6585955Y-5237776D01*
X6609145Y-5228805D01*
X6611643Y-5227136D01*
X6613159Y-5214573D01*
X6613159Y-5373201D01*
X6563353Y-5423007D01*
X6545300Y-5430467D01*
X6530519Y-5445222D01*
X6524996Y-5458521D01*
X6519533Y-5445300D01*
X6504778Y-5430519D01*
X6485489Y-5422509D01*
X6464603Y-5422491D01*
X6445300Y-5430467D01*
X6430519Y-5445222D01*
X6424996Y-5458521D01*
X6419533Y-5445300D01*
X6404778Y-5430519D01*
X6404000Y-5430196D01*
X6404000Y-5262012D01*
X6445506Y-5220506D01*
X6445980Y-5219796D01*
X6464511Y-5227491D01*
X6485397Y-5227509D01*
X6504700Y-5219533D01*
X6519481Y-5204778D01*
X6519494Y-5204747D01*
X6521195Y-5209145D01*
X6522864Y-5211643D01*
X6535427Y-5213159D01*
X6573586Y-5175000D01*
X6535427Y-5136841D01*
X6522864Y-5138357D01*
X6519660Y-5145606D01*
X6519533Y-5145300D01*
X6504778Y-5130519D01*
X6504000Y-5130196D01*
X6504000Y-5000000D01*
X6501793Y-4988902D01*
X6501793Y-4988902D01*
X6495506Y-4979494D01*
X6485292Y-4969280D01*
X6486992Y-4969322D01*
X6512608Y-4959456D01*
X6515539Y-4957498D01*
X6517846Y-4944260D01*
X6475000Y-4901414D01*
X6474443Y-4901971D01*
X6473029Y-4900557D01*
X6473586Y-4900000D01*
X6473029Y-4899443D01*
X6474443Y-4898029D01*
X6475000Y-4898586D01*
X6517846Y-4855740D01*
X6515597Y-4842839D01*
X6524989Y-4833464D01*
X6533990Y-4811787D01*
X6534010Y-4788316D01*
X6525047Y-4766623D01*
X6508464Y-4750011D01*
X6508428Y-4749996D01*
X6524989Y-4733464D01*
X6533990Y-4711787D01*
X6534010Y-4688316D01*
X6525047Y-4666623D01*
X6508464Y-4650011D01*
X6508428Y-4649996D01*
X6524989Y-4633464D01*
X6533990Y-4611787D01*
X6534000Y-4600012D01*
X6846000Y-4912012D01*
X6846000Y-5130177D01*
X6846000Y-5130177D01*
G37*
X6846000Y-5130177D02*
X6845300Y-5130467D01*
X6830519Y-5145222D01*
X6824996Y-5158521D01*
X6819533Y-5145300D01*
X6804778Y-5130519D01*
X6785489Y-5122509D01*
X6764603Y-5122491D01*
X6745300Y-5130467D01*
X6730519Y-5145222D01*
X6724996Y-5158521D01*
X6720000Y-5146429D01*
X6720000Y-5107157D01*
X6721218Y-5105940D01*
X6729541Y-5085898D01*
X6729559Y-5064197D01*
X6721272Y-5044140D01*
X6705940Y-5028782D01*
X6685898Y-5020459D01*
X6664197Y-5020441D01*
X6644140Y-5028728D01*
X6631282Y-5041563D01*
X6630587Y-5039763D01*
X6628827Y-5037129D01*
X6616052Y-5035363D01*
X6614637Y-5036777D01*
X6614637Y-5033948D01*
X6612871Y-5021173D01*
X6589390Y-5010778D01*
X6563718Y-5010160D01*
X6544322Y-5017652D01*
X6544322Y-4888008D01*
X6534456Y-4862392D01*
X6532498Y-4859461D01*
X6519260Y-4857154D01*
X6476414Y-4900000D01*
X6519260Y-4942846D01*
X6532498Y-4940539D01*
X6543634Y-4915449D01*
X6544322Y-4888008D01*
X6544322Y-5017652D01*
X6539763Y-5019413D01*
X6537129Y-5021173D01*
X6535363Y-5033948D01*
X6575000Y-5073586D01*
X6614637Y-5033948D01*
X6614637Y-5036777D01*
X6576414Y-5075000D01*
X6616052Y-5114637D01*
X6628827Y-5112871D01*
X6630000Y-5110221D01*
X6630000Y-5143945D01*
X6628805Y-5140855D01*
X6627136Y-5138357D01*
X6614637Y-5136848D01*
X6614637Y-5116052D01*
X6575000Y-5076414D01*
X6573586Y-5077828D01*
X6573586Y-5075000D01*
X6533948Y-5035363D01*
X6521173Y-5037129D01*
X6510778Y-5060610D01*
X6510160Y-5086282D01*
X6519413Y-5110237D01*
X6521173Y-5112871D01*
X6533948Y-5114637D01*
X6573586Y-5075000D01*
X6573586Y-5077828D01*
X6535363Y-5116052D01*
X6537129Y-5128827D01*
X6537612Y-5129041D01*
X6536841Y-5135427D01*
X6575000Y-5173586D01*
X6613159Y-5135427D01*
X6612400Y-5129141D01*
X6612871Y-5128827D01*
X6614637Y-5116052D01*
X6614637Y-5136848D01*
X6614573Y-5136841D01*
X6576414Y-5175000D01*
X6614573Y-5213159D01*
X6627136Y-5211643D01*
X6630000Y-5205164D01*
X6630000Y-5356360D01*
X6613159Y-5373201D01*
X6613159Y-5214573D01*
X6575000Y-5176414D01*
X6536841Y-5214573D01*
X6538357Y-5227136D01*
X6561098Y-5237190D01*
X6585955Y-5237776D01*
X6609145Y-5228805D01*
X6611643Y-5227136D01*
X6613159Y-5214573D01*
X6613159Y-5373201D01*
X6563353Y-5423007D01*
X6545300Y-5430467D01*
X6530519Y-5445222D01*
X6524996Y-5458521D01*
X6519533Y-5445300D01*
X6504778Y-5430519D01*
X6485489Y-5422509D01*
X6464603Y-5422491D01*
X6445300Y-5430467D01*
X6430519Y-5445222D01*
X6424996Y-5458521D01*
X6419533Y-5445300D01*
X6404778Y-5430519D01*
X6404000Y-5430196D01*
X6404000Y-5262012D01*
X6445506Y-5220506D01*
X6445980Y-5219796D01*
X6464511Y-5227491D01*
X6485397Y-5227509D01*
X6504700Y-5219533D01*
X6519481Y-5204778D01*
X6519494Y-5204747D01*
X6521195Y-5209145D01*
X6522864Y-5211643D01*
X6535427Y-5213159D01*
X6573586Y-5175000D01*
X6535427Y-5136841D01*
X6522864Y-5138357D01*
X6519660Y-5145606D01*
X6519533Y-5145300D01*
X6504778Y-5130519D01*
X6504000Y-5130196D01*
X6504000Y-5000000D01*
X6501793Y-4988902D01*
X6501793Y-4988902D01*
X6495506Y-4979494D01*
X6485292Y-4969280D01*
X6486992Y-4969322D01*
X6512608Y-4959456D01*
X6515539Y-4957498D01*
X6517846Y-4944260D01*
X6475000Y-4901414D01*
X6474443Y-4901971D01*
X6473029Y-4900557D01*
X6473586Y-4900000D01*
X6473029Y-4899443D01*
X6474443Y-4898029D01*
X6475000Y-4898586D01*
X6517846Y-4855740D01*
X6515597Y-4842839D01*
X6524989Y-4833464D01*
X6533990Y-4811787D01*
X6534010Y-4788316D01*
X6525047Y-4766623D01*
X6508464Y-4750011D01*
X6508428Y-4749996D01*
X6524989Y-4733464D01*
X6533990Y-4711787D01*
X6534010Y-4688316D01*
X6525047Y-4666623D01*
X6508464Y-4650011D01*
X6508428Y-4649996D01*
X6524989Y-4633464D01*
X6533990Y-4611787D01*
X6534000Y-4600012D01*
X6846000Y-4912012D01*
X6846000Y-5130177D01*
G36*
X7258848Y-5225139D02*
X7254494Y-5229494D01*
X7248207Y-5238902D01*
X7246000Y-5250000D01*
X7246000Y-5430177D01*
X7245300Y-5430467D01*
X7230519Y-5445222D01*
X7224996Y-5458521D01*
X7219533Y-5445300D01*
X7204778Y-5430519D01*
X7185489Y-5422509D01*
X7164603Y-5422491D01*
X7145300Y-5430467D01*
X7130519Y-5445222D01*
X7124996Y-5458521D01*
X7119533Y-5445300D01*
X7104778Y-5430519D01*
X7104000Y-5430196D01*
X7104000Y-5262012D01*
X7145506Y-5220506D01*
X7145980Y-5219796D01*
X7164511Y-5227491D01*
X7185397Y-5227509D01*
X7204700Y-5219533D01*
X7219481Y-5204778D01*
X7225004Y-5191478D01*
X7230467Y-5204700D01*
X7245222Y-5219481D01*
X7258848Y-5225139D01*
X7258848Y-5225139D01*
G37*
X7258848Y-5225139D02*
X7254494Y-5229494D01*
X7248207Y-5238902D01*
X7246000Y-5250000D01*
X7246000Y-5430177D01*
X7245300Y-5430467D01*
X7230519Y-5445222D01*
X7224996Y-5458521D01*
X7219533Y-5445300D01*
X7204778Y-5430519D01*
X7185489Y-5422509D01*
X7164603Y-5422491D01*
X7145300Y-5430467D01*
X7130519Y-5445222D01*
X7124996Y-5458521D01*
X7119533Y-5445300D01*
X7104778Y-5430519D01*
X7104000Y-5430196D01*
X7104000Y-5262012D01*
X7145506Y-5220506D01*
X7145980Y-5219796D01*
X7164511Y-5227491D01*
X7185397Y-5227509D01*
X7204700Y-5219533D01*
X7219481Y-5204778D01*
X7225004Y-5191478D01*
X7230467Y-5204700D01*
X7245222Y-5219481D01*
X7258848Y-5225139D01*
G36*
X7380000Y-5656360D02*
X7231360Y-5805000D01*
X6814637Y-5805000D01*
X6814637Y-5616052D01*
X6775000Y-5576414D01*
X6773586Y-5577828D01*
X6773586Y-5575000D01*
X6733948Y-5535363D01*
X6725000Y-5536600D01*
X6716052Y-5535363D01*
X6714637Y-5536777D01*
X6714637Y-5533948D01*
X6712871Y-5521173D01*
X6712388Y-5520959D01*
X6713159Y-5514573D01*
X6675000Y-5476414D01*
X6636841Y-5514573D01*
X6637599Y-5520859D01*
X6637129Y-5521173D01*
X6635363Y-5533948D01*
X6675000Y-5573586D01*
X6714637Y-5533948D01*
X6714637Y-5536777D01*
X6676414Y-5575000D01*
X6716052Y-5614637D01*
X6725000Y-5613400D01*
X6733948Y-5614637D01*
X6773586Y-5575000D01*
X6773586Y-5577828D01*
X6735363Y-5616052D01*
X6737129Y-5628827D01*
X6760610Y-5639222D01*
X6786282Y-5639840D01*
X6810237Y-5630587D01*
X6812871Y-5628827D01*
X6814637Y-5616052D01*
X6814637Y-5805000D01*
X6714637Y-5805000D01*
X6714637Y-5616052D01*
X6675000Y-5576414D01*
X6635363Y-5616052D01*
X6637129Y-5628827D01*
X6660610Y-5639222D01*
X6686282Y-5639840D01*
X6710237Y-5630587D01*
X6712871Y-5628827D01*
X6714637Y-5616052D01*
X6714637Y-5805000D01*
X5618640Y-5805000D01*
X5570000Y-5756360D01*
X5570000Y-5651427D01*
X5588213Y-5658990D01*
X5611684Y-5659010D01*
X5633377Y-5650047D01*
X5646000Y-5637446D01*
X5646000Y-5650000D01*
X5648207Y-5661098D01*
X5654494Y-5670506D01*
X5679494Y-5695506D01*
X5688902Y-5701793D01*
X5688902Y-5701793D01*
X5700000Y-5704000D01*
X5800000Y-5704000D01*
X5811098Y-5701793D01*
X5820506Y-5695506D01*
X5937012Y-5579000D01*
X6400000Y-5579000D01*
X6411098Y-5576793D01*
X6420506Y-5570506D01*
X6463812Y-5527200D01*
X6464511Y-5527491D01*
X6485397Y-5527509D01*
X6504700Y-5519533D01*
X6519481Y-5504778D01*
X6525004Y-5491478D01*
X6530000Y-5503571D01*
X6530000Y-5542843D01*
X6528782Y-5544060D01*
X6520459Y-5564102D01*
X6520441Y-5585803D01*
X6528728Y-5605860D01*
X6544060Y-5621218D01*
X6564102Y-5629541D01*
X6585803Y-5629559D01*
X6605860Y-5621272D01*
X6618718Y-5608437D01*
X6619413Y-5610237D01*
X6621173Y-5612871D01*
X6633948Y-5614637D01*
X6673586Y-5575000D01*
X6633948Y-5535363D01*
X6621173Y-5537129D01*
X6620000Y-5539779D01*
X6620000Y-5506055D01*
X6621195Y-5509145D01*
X6622864Y-5511643D01*
X6635427Y-5513159D01*
X6673586Y-5475000D01*
X6673029Y-5474443D01*
X6674443Y-5473029D01*
X6675000Y-5473586D01*
X6713159Y-5435427D01*
X6711643Y-5422864D01*
X6697173Y-5416467D01*
X6706820Y-5406820D01*
X6716575Y-5392221D01*
X6720000Y-5375000D01*
X6720000Y-5203529D01*
X6725004Y-5191478D01*
X6730467Y-5204700D01*
X6745222Y-5219481D01*
X6764511Y-5227491D01*
X6785397Y-5227509D01*
X6804700Y-5219533D01*
X6819481Y-5204778D01*
X6825004Y-5191478D01*
X6830467Y-5204700D01*
X6845222Y-5219481D01*
X6864511Y-5227491D01*
X6885397Y-5227509D01*
X6904029Y-5219810D01*
X6904494Y-5220506D01*
X6946000Y-5262012D01*
X6946000Y-5430177D01*
X6945300Y-5430467D01*
X6930519Y-5445222D01*
X6924996Y-5458521D01*
X6919533Y-5445300D01*
X6904778Y-5430519D01*
X6885489Y-5422509D01*
X6864603Y-5422491D01*
X6845300Y-5430467D01*
X6830519Y-5445222D01*
X6824996Y-5458521D01*
X6819533Y-5445300D01*
X6804778Y-5430519D01*
X6785489Y-5422509D01*
X6764603Y-5422491D01*
X6745300Y-5430467D01*
X6730519Y-5445222D01*
X6730506Y-5445253D01*
X6728805Y-5440855D01*
X6727136Y-5438357D01*
X6714573Y-5436841D01*
X6676414Y-5475000D01*
X6714573Y-5513159D01*
X6727136Y-5511643D01*
X6730340Y-5504394D01*
X6730467Y-5504700D01*
X6743654Y-5517910D01*
X6739763Y-5519413D01*
X6737129Y-5521173D01*
X6735363Y-5533948D01*
X6775000Y-5573586D01*
X6775557Y-5573029D01*
X6776971Y-5574443D01*
X6776414Y-5575000D01*
X6816052Y-5614637D01*
X6828827Y-5612871D01*
X6830947Y-5608083D01*
X6844060Y-5621218D01*
X6846000Y-5622024D01*
X6846000Y-5650000D01*
X6848207Y-5661098D01*
X6854494Y-5670506D01*
X6892873Y-5708886D01*
X6882682Y-5719060D01*
X6874359Y-5739102D01*
X6874341Y-5760803D01*
X6882628Y-5780860D01*
X6897960Y-5796218D01*
X6918002Y-5804541D01*
X6939703Y-5804559D01*
X6959760Y-5796272D01*
X6975118Y-5780940D01*
X6983441Y-5760898D01*
X6983459Y-5739197D01*
X6975172Y-5719140D01*
X6959840Y-5703782D01*
X6957700Y-5702893D01*
X6955693Y-5692802D01*
X6949406Y-5683394D01*
X6904000Y-5637988D01*
X6904000Y-5622041D01*
X6905860Y-5621272D01*
X6921218Y-5605940D01*
X6924999Y-5596835D01*
X6928728Y-5605860D01*
X6944060Y-5621218D01*
X6964102Y-5629541D01*
X6985803Y-5629559D01*
X6987745Y-5628757D01*
X7076466Y-5717478D01*
X7074882Y-5719060D01*
X7066559Y-5739102D01*
X7066541Y-5760803D01*
X7074828Y-5780860D01*
X7090160Y-5796218D01*
X7110202Y-5804541D01*
X7131903Y-5804559D01*
X7151960Y-5796272D01*
X7167318Y-5780940D01*
X7175641Y-5760898D01*
X7175659Y-5739197D01*
X7167372Y-5719140D01*
X7152040Y-5703782D01*
X7139648Y-5698636D01*
X7080719Y-5639706D01*
X7086282Y-5639840D01*
X7110237Y-5630587D01*
X7112871Y-5628827D01*
X7114637Y-5616052D01*
X7075000Y-5576414D01*
X7074443Y-5576971D01*
X7073029Y-5575557D01*
X7073586Y-5575000D01*
X7073029Y-5574443D01*
X7074443Y-5573029D01*
X7075000Y-5573586D01*
X7075557Y-5573029D01*
X7076971Y-5574443D01*
X7076414Y-5575000D01*
X7116052Y-5614637D01*
X7128827Y-5612871D01*
X7139222Y-5589390D01*
X7139840Y-5563718D01*
X7135296Y-5551952D01*
X7136098Y-5551793D01*
X7145506Y-5545506D01*
X7163812Y-5527200D01*
X7164511Y-5527491D01*
X7185397Y-5527509D01*
X7204700Y-5519533D01*
X7219481Y-5504778D01*
X7225004Y-5491478D01*
X7230467Y-5504700D01*
X7245222Y-5519481D01*
X7264511Y-5527491D01*
X7285397Y-5527509D01*
X7304700Y-5519533D01*
X7319481Y-5504778D01*
X7327491Y-5485489D01*
X7327509Y-5464603D01*
X7319533Y-5445300D01*
X7304778Y-5430519D01*
X7304000Y-5430196D01*
X7304000Y-5262012D01*
X7345506Y-5220506D01*
X7351793Y-5211098D01*
X7354000Y-5200000D01*
X7354000Y-5100000D01*
X7352172Y-5090812D01*
X7380000Y-5118640D01*
X7380000Y-5656360D01*
X7380000Y-5656360D01*
G37*
X7380000Y-5656360D02*
X7231360Y-5805000D01*
X6814637Y-5805000D01*
X6814637Y-5616052D01*
X6775000Y-5576414D01*
X6773586Y-5577828D01*
X6773586Y-5575000D01*
X6733948Y-5535363D01*
X6725000Y-5536600D01*
X6716052Y-5535363D01*
X6714637Y-5536777D01*
X6714637Y-5533948D01*
X6712871Y-5521173D01*
X6712388Y-5520959D01*
X6713159Y-5514573D01*
X6675000Y-5476414D01*
X6636841Y-5514573D01*
X6637599Y-5520859D01*
X6637129Y-5521173D01*
X6635363Y-5533948D01*
X6675000Y-5573586D01*
X6714637Y-5533948D01*
X6714637Y-5536777D01*
X6676414Y-5575000D01*
X6716052Y-5614637D01*
X6725000Y-5613400D01*
X6733948Y-5614637D01*
X6773586Y-5575000D01*
X6773586Y-5577828D01*
X6735363Y-5616052D01*
X6737129Y-5628827D01*
X6760610Y-5639222D01*
X6786282Y-5639840D01*
X6810237Y-5630587D01*
X6812871Y-5628827D01*
X6814637Y-5616052D01*
X6814637Y-5805000D01*
X6714637Y-5805000D01*
X6714637Y-5616052D01*
X6675000Y-5576414D01*
X6635363Y-5616052D01*
X6637129Y-5628827D01*
X6660610Y-5639222D01*
X6686282Y-5639840D01*
X6710237Y-5630587D01*
X6712871Y-5628827D01*
X6714637Y-5616052D01*
X6714637Y-5805000D01*
X5618640Y-5805000D01*
X5570000Y-5756360D01*
X5570000Y-5651427D01*
X5588213Y-5658990D01*
X5611684Y-5659010D01*
X5633377Y-5650047D01*
X5646000Y-5637446D01*
X5646000Y-5650000D01*
X5648207Y-5661098D01*
X5654494Y-5670506D01*
X5679494Y-5695506D01*
X5688902Y-5701793D01*
X5688902Y-5701793D01*
X5700000Y-5704000D01*
X5800000Y-5704000D01*
X5811098Y-5701793D01*
X5820506Y-5695506D01*
X5937012Y-5579000D01*
X6400000Y-5579000D01*
X6411098Y-5576793D01*
X6420506Y-5570506D01*
X6463812Y-5527200D01*
X6464511Y-5527491D01*
X6485397Y-5527509D01*
X6504700Y-5519533D01*
X6519481Y-5504778D01*
X6525004Y-5491478D01*
X6530000Y-5503571D01*
X6530000Y-5542843D01*
X6528782Y-5544060D01*
X6520459Y-5564102D01*
X6520441Y-5585803D01*
X6528728Y-5605860D01*
X6544060Y-5621218D01*
X6564102Y-5629541D01*
X6585803Y-5629559D01*
X6605860Y-5621272D01*
X6618718Y-5608437D01*
X6619413Y-5610237D01*
X6621173Y-5612871D01*
X6633948Y-5614637D01*
X6673586Y-5575000D01*
X6633948Y-5535363D01*
X6621173Y-5537129D01*
X6620000Y-5539779D01*
X6620000Y-5506055D01*
X6621195Y-5509145D01*
X6622864Y-5511643D01*
X6635427Y-5513159D01*
X6673586Y-5475000D01*
X6673029Y-5474443D01*
X6674443Y-5473029D01*
X6675000Y-5473586D01*
X6713159Y-5435427D01*
X6711643Y-5422864D01*
X6697173Y-5416467D01*
X6706820Y-5406820D01*
X6716575Y-5392221D01*
X6720000Y-5375000D01*
X6720000Y-5203529D01*
X6725004Y-5191478D01*
X6730467Y-5204700D01*
X6745222Y-5219481D01*
X6764511Y-5227491D01*
X6785397Y-5227509D01*
X6804700Y-5219533D01*
X6819481Y-5204778D01*
X6825004Y-5191478D01*
X6830467Y-5204700D01*
X6845222Y-5219481D01*
X6864511Y-5227491D01*
X6885397Y-5227509D01*
X6904029Y-5219810D01*
X6904494Y-5220506D01*
X6946000Y-5262012D01*
X6946000Y-5430177D01*
X6945300Y-5430467D01*
X6930519Y-5445222D01*
X6924996Y-5458521D01*
X6919533Y-5445300D01*
X6904778Y-5430519D01*
X6885489Y-5422509D01*
X6864603Y-5422491D01*
X6845300Y-5430467D01*
X6830519Y-5445222D01*
X6824996Y-5458521D01*
X6819533Y-5445300D01*
X6804778Y-5430519D01*
X6785489Y-5422509D01*
X6764603Y-5422491D01*
X6745300Y-5430467D01*
X6730519Y-5445222D01*
X6730506Y-5445253D01*
X6728805Y-5440855D01*
X6727136Y-5438357D01*
X6714573Y-5436841D01*
X6676414Y-5475000D01*
X6714573Y-5513159D01*
X6727136Y-5511643D01*
X6730340Y-5504394D01*
X6730467Y-5504700D01*
X6743654Y-5517910D01*
X6739763Y-5519413D01*
X6737129Y-5521173D01*
X6735363Y-5533948D01*
X6775000Y-5573586D01*
X6775557Y-5573029D01*
X6776971Y-5574443D01*
X6776414Y-5575000D01*
X6816052Y-5614637D01*
X6828827Y-5612871D01*
X6830947Y-5608083D01*
X6844060Y-5621218D01*
X6846000Y-5622024D01*
X6846000Y-5650000D01*
X6848207Y-5661098D01*
X6854494Y-5670506D01*
X6892873Y-5708886D01*
X6882682Y-5719060D01*
X6874359Y-5739102D01*
X6874341Y-5760803D01*
X6882628Y-5780860D01*
X6897960Y-5796218D01*
X6918002Y-5804541D01*
X6939703Y-5804559D01*
X6959760Y-5796272D01*
X6975118Y-5780940D01*
X6983441Y-5760898D01*
X6983459Y-5739197D01*
X6975172Y-5719140D01*
X6959840Y-5703782D01*
X6957700Y-5702893D01*
X6955693Y-5692802D01*
X6949406Y-5683394D01*
X6904000Y-5637988D01*
X6904000Y-5622041D01*
X6905860Y-5621272D01*
X6921218Y-5605940D01*
X6924999Y-5596835D01*
X6928728Y-5605860D01*
X6944060Y-5621218D01*
X6964102Y-5629541D01*
X6985803Y-5629559D01*
X6987745Y-5628757D01*
X7076466Y-5717478D01*
X7074882Y-5719060D01*
X7066559Y-5739102D01*
X7066541Y-5760803D01*
X7074828Y-5780860D01*
X7090160Y-5796218D01*
X7110202Y-5804541D01*
X7131903Y-5804559D01*
X7151960Y-5796272D01*
X7167318Y-5780940D01*
X7175641Y-5760898D01*
X7175659Y-5739197D01*
X7167372Y-5719140D01*
X7152040Y-5703782D01*
X7139648Y-5698636D01*
X7080719Y-5639706D01*
X7086282Y-5639840D01*
X7110237Y-5630587D01*
X7112871Y-5628827D01*
X7114637Y-5616052D01*
X7075000Y-5576414D01*
X7074443Y-5576971D01*
X7073029Y-5575557D01*
X7073586Y-5575000D01*
X7073029Y-5574443D01*
X7074443Y-5573029D01*
X7075000Y-5573586D01*
X7075557Y-5573029D01*
X7076971Y-5574443D01*
X7076414Y-5575000D01*
X7116052Y-5614637D01*
X7128827Y-5612871D01*
X7139222Y-5589390D01*
X7139840Y-5563718D01*
X7135296Y-5551952D01*
X7136098Y-5551793D01*
X7145506Y-5545506D01*
X7163812Y-5527200D01*
X7164511Y-5527491D01*
X7185397Y-5527509D01*
X7204700Y-5519533D01*
X7219481Y-5504778D01*
X7225004Y-5491478D01*
X7230467Y-5504700D01*
X7245222Y-5519481D01*
X7264511Y-5527491D01*
X7285397Y-5527509D01*
X7304700Y-5519533D01*
X7319481Y-5504778D01*
X7327491Y-5485489D01*
X7327509Y-5464603D01*
X7319533Y-5445300D01*
X7304778Y-5430519D01*
X7304000Y-5430196D01*
X7304000Y-5262012D01*
X7345506Y-5220506D01*
X7351793Y-5211098D01*
X7354000Y-5200000D01*
X7354000Y-5100000D01*
X7352172Y-5090812D01*
X7380000Y-5118640D01*
X7380000Y-5656360D01*
G36*
X7847047Y-5878543D02*
X7842987Y-5878543D01*
X7842987Y-5186781D01*
X7842987Y-5163219D01*
X7833304Y-5138099D01*
X7815093Y-5118962D01*
X7816719Y-5117875D01*
X7829509Y-5098734D01*
X7834000Y-5076156D01*
X7834000Y-5073844D01*
X7829509Y-5051266D01*
X7816719Y-5032125D01*
X7806056Y-5025000D01*
X7816719Y-5017875D01*
X7829509Y-4998734D01*
X7834000Y-4976156D01*
X7834000Y-4973844D01*
X7829509Y-4951266D01*
X7824350Y-4943545D01*
X7824350Y-4824312D01*
X7824350Y-4787750D01*
X7824350Y-4768250D01*
X7824350Y-4731688D01*
X7820300Y-4721911D01*
X7820300Y-4105517D01*
X7798559Y-4052899D01*
X7758337Y-4012606D01*
X7705757Y-3990773D01*
X7648824Y-3990723D01*
X7596206Y-4012465D01*
X7555913Y-4052687D01*
X7534080Y-4105267D01*
X7534030Y-4162200D01*
X7555772Y-4214818D01*
X7595994Y-4255110D01*
X7648574Y-4276944D01*
X7705507Y-4276993D01*
X7758125Y-4255252D01*
X7798418Y-4215030D01*
X7820251Y-4162450D01*
X7820300Y-4105517D01*
X7820300Y-4721911D01*
X7819022Y-4718824D01*
X7809176Y-4708978D01*
X7796312Y-4703650D01*
X7782388Y-4703650D01*
X7759750Y-4703650D01*
X7751000Y-4712400D01*
X7751000Y-4777000D01*
X7815600Y-4777000D01*
X7824350Y-4768250D01*
X7824350Y-4787750D01*
X7815600Y-4779000D01*
X7751000Y-4779000D01*
X7751000Y-4843600D01*
X7759750Y-4852350D01*
X7782388Y-4852350D01*
X7796312Y-4852350D01*
X7809176Y-4847022D01*
X7819022Y-4837176D01*
X7824350Y-4824312D01*
X7824350Y-4943545D01*
X7816719Y-4932125D01*
X7797578Y-4919335D01*
X7775000Y-4914844D01*
X7754000Y-4919021D01*
X7754000Y-4900000D01*
X7751793Y-4888902D01*
X7745506Y-4879494D01*
X7718362Y-4852350D01*
X7740250Y-4852350D01*
X7749000Y-4843600D01*
X7749000Y-4779000D01*
X7748213Y-4779000D01*
X7748213Y-4777000D01*
X7749000Y-4777000D01*
X7749000Y-4712400D01*
X7740250Y-4703650D01*
X7717612Y-4703650D01*
X7704000Y-4703650D01*
X7704000Y-4609012D01*
X7729745Y-4583267D01*
X7737144Y-4586339D01*
X7762744Y-4586361D01*
X7786404Y-4576585D01*
X7804521Y-4558499D01*
X7814339Y-4534856D01*
X7814361Y-4509256D01*
X7804585Y-4485596D01*
X7786499Y-4467479D01*
X7762856Y-4457661D01*
X7737256Y-4457639D01*
X7713596Y-4467415D01*
X7695479Y-4485501D01*
X7685661Y-4509144D01*
X7685639Y-4534744D01*
X7688740Y-4542248D01*
X7654494Y-4576494D01*
X7654000Y-4577233D01*
X7654000Y-4500000D01*
X7651793Y-4488902D01*
X7651793Y-4488902D01*
X7645506Y-4479494D01*
X7607173Y-4441161D01*
X7608990Y-4436787D01*
X7609010Y-4413316D01*
X7600047Y-4391623D01*
X7583464Y-4375011D01*
X7561787Y-4366010D01*
X7538316Y-4365990D01*
X7516623Y-4374953D01*
X7500011Y-4391536D01*
X7491010Y-4413213D01*
X7490990Y-4436684D01*
X7499953Y-4458377D01*
X7516536Y-4474989D01*
X7538213Y-4483990D01*
X7561684Y-4484010D01*
X7566152Y-4482164D01*
X7596000Y-4512012D01*
X7596000Y-4787569D01*
X7583464Y-4775011D01*
X7561787Y-4766010D01*
X7538316Y-4765990D01*
X7516623Y-4774953D01*
X7500011Y-4791536D01*
X7491010Y-4813213D01*
X7490990Y-4836684D01*
X7499953Y-4858377D01*
X7516536Y-4874989D01*
X7521000Y-4876842D01*
X7521000Y-5200000D01*
X7523207Y-5211098D01*
X7529494Y-5220506D01*
X7645887Y-5336899D01*
X7645010Y-5339012D01*
X7644990Y-5360892D01*
X7653346Y-5381114D01*
X7665756Y-5393546D01*
X7664524Y-5394022D01*
X7661859Y-5395802D01*
X7660038Y-5408624D01*
X7700000Y-5448586D01*
X7739962Y-5408624D01*
X7738141Y-5395802D01*
X7733865Y-5393908D01*
X7746600Y-5381196D01*
X7754990Y-5360988D01*
X7755010Y-5339108D01*
X7746654Y-5318886D01*
X7731196Y-5303400D01*
X7710988Y-5295010D01*
X7689108Y-5294990D01*
X7686911Y-5295898D01*
X7579000Y-5187988D01*
X7579000Y-4876856D01*
X7583377Y-4875047D01*
X7596000Y-4862446D01*
X7596000Y-5025000D01*
X7598207Y-5036098D01*
X7604494Y-5045506D01*
X7618793Y-5059805D01*
X7616000Y-5073844D01*
X7616000Y-5076156D01*
X7620491Y-5098734D01*
X7633281Y-5117875D01*
X7643944Y-5125000D01*
X7633281Y-5132125D01*
X7620491Y-5151266D01*
X7616000Y-5173844D01*
X7616000Y-5176156D01*
X7620491Y-5198734D01*
X7633281Y-5217875D01*
X7652422Y-5230665D01*
X7675000Y-5235156D01*
X7697578Y-5230665D01*
X7716719Y-5217875D01*
X7719055Y-5214380D01*
X7735256Y-5231404D01*
X7759866Y-5242320D01*
X7763219Y-5242987D01*
X7774000Y-5235242D01*
X7774000Y-5176000D01*
X7773213Y-5176000D01*
X7773213Y-5174000D01*
X7774000Y-5174000D01*
X7774000Y-5173213D01*
X7776000Y-5173213D01*
X7776000Y-5174000D01*
X7835243Y-5174000D01*
X7842987Y-5163219D01*
X7842987Y-5186781D01*
X7835243Y-5176000D01*
X7776000Y-5176000D01*
X7776000Y-5235242D01*
X7786781Y-5242987D01*
X7790134Y-5242320D01*
X7814744Y-5231404D01*
X7833304Y-5211901D01*
X7842987Y-5186781D01*
X7842987Y-5878543D01*
X7820300Y-5878543D01*
X7820300Y-5680320D01*
X7798559Y-5627702D01*
X7765294Y-5594378D01*
X7765294Y-5438646D01*
X7755978Y-5414524D01*
X7754198Y-5411859D01*
X7741376Y-5410038D01*
X7701414Y-5450000D01*
X7741376Y-5489962D01*
X7754198Y-5488141D01*
X7764668Y-5464497D01*
X7765294Y-5438646D01*
X7765294Y-5594378D01*
X7758337Y-5587409D01*
X7739962Y-5579779D01*
X7739962Y-5491376D01*
X7700000Y-5451414D01*
X7698586Y-5452828D01*
X7698586Y-5450000D01*
X7658624Y-5410038D01*
X7645802Y-5411859D01*
X7635332Y-5435503D01*
X7634706Y-5461354D01*
X7644022Y-5485476D01*
X7645802Y-5488141D01*
X7658624Y-5489962D01*
X7698586Y-5450000D01*
X7698586Y-5452828D01*
X7660038Y-5491376D01*
X7661859Y-5504198D01*
X7685503Y-5514668D01*
X7711354Y-5515294D01*
X7735476Y-5505978D01*
X7738141Y-5504198D01*
X7739962Y-5491376D01*
X7739962Y-5579779D01*
X7705757Y-5565576D01*
X7648824Y-5565526D01*
X7596206Y-5587268D01*
X7555913Y-5627490D01*
X7534080Y-5680070D01*
X7534030Y-5737003D01*
X7555772Y-5789621D01*
X7595994Y-5829914D01*
X7648574Y-5851747D01*
X7705507Y-5851796D01*
X7758125Y-5830055D01*
X7798418Y-5789833D01*
X7820251Y-5737253D01*
X7820300Y-5680320D01*
X7820300Y-5878543D01*
X7285096Y-5878543D01*
X7456820Y-5706820D01*
X7466575Y-5692221D01*
X7470000Y-5675000D01*
X7470000Y-5100000D01*
X7466575Y-5082779D01*
X7456820Y-5068180D01*
X7444322Y-5055683D01*
X7444322Y-4888008D01*
X7434456Y-4862392D01*
X7432498Y-4859461D01*
X7419260Y-4857154D01*
X7376414Y-4900000D01*
X7419260Y-4942846D01*
X7432498Y-4940539D01*
X7443634Y-4915449D01*
X7444322Y-4888008D01*
X7444322Y-5055683D01*
X7355457Y-4966817D01*
X7359551Y-4968634D01*
X7386992Y-4969322D01*
X7412608Y-4959456D01*
X7415539Y-4957498D01*
X7417846Y-4944260D01*
X7375000Y-4901414D01*
X7374443Y-4901971D01*
X7373029Y-4900557D01*
X7373586Y-4900000D01*
X7330740Y-4857154D01*
X7317502Y-4859461D01*
X7306366Y-4884551D01*
X7305678Y-4911992D01*
X7308839Y-4920199D01*
X7231820Y-4843180D01*
X7217221Y-4833425D01*
X7200000Y-4830000D01*
X7182779Y-4833425D01*
X7179000Y-4835951D01*
X7179000Y-4812012D01*
X7312012Y-4679000D01*
X7319836Y-4679000D01*
X7316010Y-4688213D01*
X7315990Y-4711684D01*
X7324953Y-4733377D01*
X7341536Y-4749989D01*
X7341572Y-4750004D01*
X7325011Y-4766536D01*
X7316010Y-4788213D01*
X7315990Y-4811684D01*
X7324953Y-4833377D01*
X7334402Y-4842843D01*
X7332154Y-4855740D01*
X7375000Y-4898586D01*
X7417846Y-4855740D01*
X7415597Y-4842839D01*
X7424989Y-4833464D01*
X7433990Y-4811787D01*
X7434010Y-4788316D01*
X7425047Y-4766623D01*
X7408464Y-4750011D01*
X7408428Y-4749996D01*
X7424989Y-4733464D01*
X7433990Y-4711787D01*
X7434010Y-4688316D01*
X7425047Y-4666623D01*
X7424718Y-4666294D01*
X7445506Y-4645506D01*
X7451793Y-4636098D01*
X7451793Y-4636098D01*
X7454000Y-4625000D01*
X7454000Y-4350000D01*
X7451793Y-4338902D01*
X7445506Y-4329494D01*
X7432173Y-4316161D01*
X7433990Y-4311787D01*
X7434010Y-4288316D01*
X7425047Y-4266623D01*
X7416424Y-4257985D01*
X7423161Y-4255194D01*
X7430194Y-4248161D01*
X7434000Y-4238973D01*
X7434000Y-4229027D01*
X7434000Y-4161027D01*
X7430194Y-4151839D01*
X7423161Y-4144806D01*
X7413973Y-4141000D01*
X7404027Y-4141000D01*
X7336027Y-4141000D01*
X7326839Y-4144806D01*
X7319806Y-4151839D01*
X7316000Y-4161027D01*
X7316000Y-4170973D01*
X7316000Y-4217988D01*
X7279494Y-4254494D01*
X7273207Y-4263902D01*
X7271000Y-4275000D01*
X7271000Y-4462988D01*
X7061809Y-4672179D01*
X7067493Y-4658491D01*
X7067507Y-4641583D01*
X7061051Y-4625957D01*
X7049106Y-4613991D01*
X7033491Y-4607507D01*
X7016583Y-4607493D01*
X7000957Y-4613949D01*
X6988991Y-4625894D01*
X6982507Y-4641509D01*
X6982493Y-4658417D01*
X6988949Y-4674043D01*
X6996000Y-4681106D01*
X6996000Y-4830233D01*
X6995506Y-4829494D01*
X6579000Y-4412988D01*
X6579000Y-4300000D01*
X6576793Y-4288902D01*
X6570506Y-4279494D01*
X6532824Y-4241812D01*
X6534000Y-4238973D01*
X6534000Y-4229027D01*
X6534000Y-4161027D01*
X6530194Y-4151839D01*
X6523161Y-4144806D01*
X6513973Y-4141000D01*
X6504027Y-4141000D01*
X6436027Y-4141000D01*
X6426839Y-4144806D01*
X6419806Y-4151839D01*
X6416000Y-4161027D01*
X6416000Y-4170973D01*
X6416000Y-4172790D01*
X6413902Y-4173207D01*
X6404494Y-4179494D01*
X6379494Y-4204494D01*
X6375000Y-4211219D01*
X6370506Y-4204494D01*
X6345506Y-4179494D01*
X6336098Y-4173207D01*
X6325000Y-4171000D01*
X6309000Y-4171000D01*
X6309000Y-4161027D01*
X6305194Y-4151839D01*
X6298161Y-4144806D01*
X6288973Y-4141000D01*
X6279027Y-4141000D01*
X6211027Y-4141000D01*
X6201839Y-4144806D01*
X6194806Y-4151839D01*
X6191000Y-4161027D01*
X6191000Y-4170973D01*
X6191000Y-4238973D01*
X6192176Y-4241812D01*
X6179494Y-4254494D01*
X6173207Y-4263902D01*
X6171000Y-4275000D01*
X6171000Y-4350000D01*
X6173207Y-4361098D01*
X6179494Y-4370506D01*
X6192826Y-4383839D01*
X6191010Y-4388213D01*
X6190990Y-4411684D01*
X6199953Y-4433377D01*
X6216536Y-4449989D01*
X6216572Y-4450004D01*
X6200011Y-4466536D01*
X6191010Y-4488213D01*
X6190990Y-4511684D01*
X6199953Y-4533377D01*
X6216536Y-4549989D01*
X6216572Y-4550004D01*
X6200011Y-4566536D01*
X6191010Y-4588213D01*
X6191006Y-4592982D01*
X5859010Y-4924978D01*
X5859010Y-4613316D01*
X5850047Y-4591623D01*
X5833464Y-4575011D01*
X5811787Y-4566010D01*
X5788316Y-4565990D01*
X5766623Y-4574953D01*
X5750011Y-4591536D01*
X5741010Y-4613213D01*
X5740990Y-4636684D01*
X5749953Y-4658377D01*
X5766536Y-4674989D01*
X5788213Y-4683990D01*
X5811684Y-4684010D01*
X5833377Y-4675047D01*
X5849989Y-4658464D01*
X5858990Y-4636787D01*
X5859010Y-4613316D01*
X5859010Y-4924978D01*
X5816161Y-4967826D01*
X5811787Y-4966010D01*
X5788316Y-4965990D01*
X5766623Y-4974953D01*
X5750011Y-4991536D01*
X5741010Y-5013213D01*
X5741000Y-5024988D01*
X5604000Y-4887988D01*
X5604000Y-4825000D01*
X5601793Y-4813902D01*
X5601793Y-4813902D01*
X5595506Y-4804494D01*
X5529000Y-4737988D01*
X5529000Y-4600000D01*
X5526793Y-4588902D01*
X5520506Y-4579494D01*
X5479000Y-4537988D01*
X5479000Y-4300000D01*
X5476793Y-4288902D01*
X5470506Y-4279494D01*
X5409000Y-4217988D01*
X5409000Y-4161027D01*
X5405194Y-4151839D01*
X5398355Y-4145000D01*
X5631360Y-4145000D01*
X5955000Y-4468640D01*
X5955000Y-4586556D01*
X5950011Y-4591536D01*
X5941010Y-4613213D01*
X5940990Y-4636684D01*
X5949953Y-4658377D01*
X5966536Y-4674989D01*
X5988213Y-4683990D01*
X6011684Y-4684010D01*
X6033377Y-4675047D01*
X6049989Y-4658464D01*
X6058990Y-4636787D01*
X6059010Y-4613316D01*
X6050047Y-4591623D01*
X6045000Y-4586567D01*
X6045000Y-4450000D01*
X6041575Y-4432779D01*
X6031820Y-4418180D01*
X5681820Y-4068180D01*
X5667221Y-4058425D01*
X5650000Y-4055000D01*
X5325000Y-4055000D01*
X5307779Y-4058425D01*
X5293180Y-4068180D01*
X5181360Y-4180000D01*
X5128529Y-4180000D01*
X5110489Y-4172509D01*
X5089603Y-4172491D01*
X5070300Y-4180467D01*
X5055519Y-4195222D01*
X5049861Y-4208848D01*
X5029000Y-4187988D01*
X5029000Y-4187012D01*
X5133839Y-4082173D01*
X5138213Y-4083990D01*
X5161684Y-4084010D01*
X5183377Y-4075047D01*
X5199989Y-4058464D01*
X5208990Y-4036787D01*
X5209010Y-4013316D01*
X5200047Y-3991623D01*
X5183464Y-3975011D01*
X5161787Y-3966010D01*
X5138316Y-3965990D01*
X5116623Y-3974953D01*
X5100011Y-3991536D01*
X5099996Y-3991572D01*
X5083464Y-3975011D01*
X5061787Y-3966010D01*
X5038316Y-3965990D01*
X5016623Y-3974953D01*
X5000011Y-3991536D01*
X4999996Y-3991572D01*
X4983464Y-3975011D01*
X4961787Y-3966010D01*
X4938316Y-3965990D01*
X4916623Y-3974953D01*
X4900011Y-3991536D01*
X4899996Y-3991572D01*
X4883464Y-3975011D01*
X4861787Y-3966010D01*
X4838316Y-3965990D01*
X4816623Y-3974953D01*
X4800011Y-3991536D01*
X4799996Y-3991572D01*
X4783464Y-3975011D01*
X4761787Y-3966010D01*
X4738316Y-3965990D01*
X4716623Y-3974953D01*
X4715642Y-3975932D01*
X4713672Y-3971174D01*
X4706474Y-3963976D01*
X7847047Y-3963976D01*
X7847047Y-5878543D01*
X7847047Y-5878543D01*
G37*
X7847047Y-5878543D02*
X7842987Y-5878543D01*
X7842987Y-5186781D01*
X7842987Y-5163219D01*
X7833304Y-5138099D01*
X7815093Y-5118962D01*
X7816719Y-5117875D01*
X7829509Y-5098734D01*
X7834000Y-5076156D01*
X7834000Y-5073844D01*
X7829509Y-5051266D01*
X7816719Y-5032125D01*
X7806056Y-5025000D01*
X7816719Y-5017875D01*
X7829509Y-4998734D01*
X7834000Y-4976156D01*
X7834000Y-4973844D01*
X7829509Y-4951266D01*
X7824350Y-4943545D01*
X7824350Y-4824312D01*
X7824350Y-4787750D01*
X7824350Y-4768250D01*
X7824350Y-4731688D01*
X7820300Y-4721911D01*
X7820300Y-4105517D01*
X7798559Y-4052899D01*
X7758337Y-4012606D01*
X7705757Y-3990773D01*
X7648824Y-3990723D01*
X7596206Y-4012465D01*
X7555913Y-4052687D01*
X7534080Y-4105267D01*
X7534030Y-4162200D01*
X7555772Y-4214818D01*
X7595994Y-4255110D01*
X7648574Y-4276944D01*
X7705507Y-4276993D01*
X7758125Y-4255252D01*
X7798418Y-4215030D01*
X7820251Y-4162450D01*
X7820300Y-4105517D01*
X7820300Y-4721911D01*
X7819022Y-4718824D01*
X7809176Y-4708978D01*
X7796312Y-4703650D01*
X7782388Y-4703650D01*
X7759750Y-4703650D01*
X7751000Y-4712400D01*
X7751000Y-4777000D01*
X7815600Y-4777000D01*
X7824350Y-4768250D01*
X7824350Y-4787750D01*
X7815600Y-4779000D01*
X7751000Y-4779000D01*
X7751000Y-4843600D01*
X7759750Y-4852350D01*
X7782388Y-4852350D01*
X7796312Y-4852350D01*
X7809176Y-4847022D01*
X7819022Y-4837176D01*
X7824350Y-4824312D01*
X7824350Y-4943545D01*
X7816719Y-4932125D01*
X7797578Y-4919335D01*
X7775000Y-4914844D01*
X7754000Y-4919021D01*
X7754000Y-4900000D01*
X7751793Y-4888902D01*
X7745506Y-4879494D01*
X7718362Y-4852350D01*
X7740250Y-4852350D01*
X7749000Y-4843600D01*
X7749000Y-4779000D01*
X7748213Y-4779000D01*
X7748213Y-4777000D01*
X7749000Y-4777000D01*
X7749000Y-4712400D01*
X7740250Y-4703650D01*
X7717612Y-4703650D01*
X7704000Y-4703650D01*
X7704000Y-4609012D01*
X7729745Y-4583267D01*
X7737144Y-4586339D01*
X7762744Y-4586361D01*
X7786404Y-4576585D01*
X7804521Y-4558499D01*
X7814339Y-4534856D01*
X7814361Y-4509256D01*
X7804585Y-4485596D01*
X7786499Y-4467479D01*
X7762856Y-4457661D01*
X7737256Y-4457639D01*
X7713596Y-4467415D01*
X7695479Y-4485501D01*
X7685661Y-4509144D01*
X7685639Y-4534744D01*
X7688740Y-4542248D01*
X7654494Y-4576494D01*
X7654000Y-4577233D01*
X7654000Y-4500000D01*
X7651793Y-4488902D01*
X7651793Y-4488902D01*
X7645506Y-4479494D01*
X7607173Y-4441161D01*
X7608990Y-4436787D01*
X7609010Y-4413316D01*
X7600047Y-4391623D01*
X7583464Y-4375011D01*
X7561787Y-4366010D01*
X7538316Y-4365990D01*
X7516623Y-4374953D01*
X7500011Y-4391536D01*
X7491010Y-4413213D01*
X7490990Y-4436684D01*
X7499953Y-4458377D01*
X7516536Y-4474989D01*
X7538213Y-4483990D01*
X7561684Y-4484010D01*
X7566152Y-4482164D01*
X7596000Y-4512012D01*
X7596000Y-4787569D01*
X7583464Y-4775011D01*
X7561787Y-4766010D01*
X7538316Y-4765990D01*
X7516623Y-4774953D01*
X7500011Y-4791536D01*
X7491010Y-4813213D01*
X7490990Y-4836684D01*
X7499953Y-4858377D01*
X7516536Y-4874989D01*
X7521000Y-4876842D01*
X7521000Y-5200000D01*
X7523207Y-5211098D01*
X7529494Y-5220506D01*
X7645887Y-5336899D01*
X7645010Y-5339012D01*
X7644990Y-5360892D01*
X7653346Y-5381114D01*
X7665756Y-5393546D01*
X7664524Y-5394022D01*
X7661859Y-5395802D01*
X7660038Y-5408624D01*
X7700000Y-5448586D01*
X7739962Y-5408624D01*
X7738141Y-5395802D01*
X7733865Y-5393908D01*
X7746600Y-5381196D01*
X7754990Y-5360988D01*
X7755010Y-5339108D01*
X7746654Y-5318886D01*
X7731196Y-5303400D01*
X7710988Y-5295010D01*
X7689108Y-5294990D01*
X7686911Y-5295898D01*
X7579000Y-5187988D01*
X7579000Y-4876856D01*
X7583377Y-4875047D01*
X7596000Y-4862446D01*
X7596000Y-5025000D01*
X7598207Y-5036098D01*
X7604494Y-5045506D01*
X7618793Y-5059805D01*
X7616000Y-5073844D01*
X7616000Y-5076156D01*
X7620491Y-5098734D01*
X7633281Y-5117875D01*
X7643944Y-5125000D01*
X7633281Y-5132125D01*
X7620491Y-5151266D01*
X7616000Y-5173844D01*
X7616000Y-5176156D01*
X7620491Y-5198734D01*
X7633281Y-5217875D01*
X7652422Y-5230665D01*
X7675000Y-5235156D01*
X7697578Y-5230665D01*
X7716719Y-5217875D01*
X7719055Y-5214380D01*
X7735256Y-5231404D01*
X7759866Y-5242320D01*
X7763219Y-5242987D01*
X7774000Y-5235242D01*
X7774000Y-5176000D01*
X7773213Y-5176000D01*
X7773213Y-5174000D01*
X7774000Y-5174000D01*
X7774000Y-5173213D01*
X7776000Y-5173213D01*
X7776000Y-5174000D01*
X7835243Y-5174000D01*
X7842987Y-5163219D01*
X7842987Y-5186781D01*
X7835243Y-5176000D01*
X7776000Y-5176000D01*
X7776000Y-5235242D01*
X7786781Y-5242987D01*
X7790134Y-5242320D01*
X7814744Y-5231404D01*
X7833304Y-5211901D01*
X7842987Y-5186781D01*
X7842987Y-5878543D01*
X7820300Y-5878543D01*
X7820300Y-5680320D01*
X7798559Y-5627702D01*
X7765294Y-5594378D01*
X7765294Y-5438646D01*
X7755978Y-5414524D01*
X7754198Y-5411859D01*
X7741376Y-5410038D01*
X7701414Y-5450000D01*
X7741376Y-5489962D01*
X7754198Y-5488141D01*
X7764668Y-5464497D01*
X7765294Y-5438646D01*
X7765294Y-5594378D01*
X7758337Y-5587409D01*
X7739962Y-5579779D01*
X7739962Y-5491376D01*
X7700000Y-5451414D01*
X7698586Y-5452828D01*
X7698586Y-5450000D01*
X7658624Y-5410038D01*
X7645802Y-5411859D01*
X7635332Y-5435503D01*
X7634706Y-5461354D01*
X7644022Y-5485476D01*
X7645802Y-5488141D01*
X7658624Y-5489962D01*
X7698586Y-5450000D01*
X7698586Y-5452828D01*
X7660038Y-5491376D01*
X7661859Y-5504198D01*
X7685503Y-5514668D01*
X7711354Y-5515294D01*
X7735476Y-5505978D01*
X7738141Y-5504198D01*
X7739962Y-5491376D01*
X7739962Y-5579779D01*
X7705757Y-5565576D01*
X7648824Y-5565526D01*
X7596206Y-5587268D01*
X7555913Y-5627490D01*
X7534080Y-5680070D01*
X7534030Y-5737003D01*
X7555772Y-5789621D01*
X7595994Y-5829914D01*
X7648574Y-5851747D01*
X7705507Y-5851796D01*
X7758125Y-5830055D01*
X7798418Y-5789833D01*
X7820251Y-5737253D01*
X7820300Y-5680320D01*
X7820300Y-5878543D01*
X7285096Y-5878543D01*
X7456820Y-5706820D01*
X7466575Y-5692221D01*
X7470000Y-5675000D01*
X7470000Y-5100000D01*
X7466575Y-5082779D01*
X7456820Y-5068180D01*
X7444322Y-5055683D01*
X7444322Y-4888008D01*
X7434456Y-4862392D01*
X7432498Y-4859461D01*
X7419260Y-4857154D01*
X7376414Y-4900000D01*
X7419260Y-4942846D01*
X7432498Y-4940539D01*
X7443634Y-4915449D01*
X7444322Y-4888008D01*
X7444322Y-5055683D01*
X7355457Y-4966817D01*
X7359551Y-4968634D01*
X7386992Y-4969322D01*
X7412608Y-4959456D01*
X7415539Y-4957498D01*
X7417846Y-4944260D01*
X7375000Y-4901414D01*
X7374443Y-4901971D01*
X7373029Y-4900557D01*
X7373586Y-4900000D01*
X7330740Y-4857154D01*
X7317502Y-4859461D01*
X7306366Y-4884551D01*
X7305678Y-4911992D01*
X7308839Y-4920199D01*
X7231820Y-4843180D01*
X7217221Y-4833425D01*
X7200000Y-4830000D01*
X7182779Y-4833425D01*
X7179000Y-4835951D01*
X7179000Y-4812012D01*
X7312012Y-4679000D01*
X7319836Y-4679000D01*
X7316010Y-4688213D01*
X7315990Y-4711684D01*
X7324953Y-4733377D01*
X7341536Y-4749989D01*
X7341572Y-4750004D01*
X7325011Y-4766536D01*
X7316010Y-4788213D01*
X7315990Y-4811684D01*
X7324953Y-4833377D01*
X7334402Y-4842843D01*
X7332154Y-4855740D01*
X7375000Y-4898586D01*
X7417846Y-4855740D01*
X7415597Y-4842839D01*
X7424989Y-4833464D01*
X7433990Y-4811787D01*
X7434010Y-4788316D01*
X7425047Y-4766623D01*
X7408464Y-4750011D01*
X7408428Y-4749996D01*
X7424989Y-4733464D01*
X7433990Y-4711787D01*
X7434010Y-4688316D01*
X7425047Y-4666623D01*
X7424718Y-4666294D01*
X7445506Y-4645506D01*
X7451793Y-4636098D01*
X7451793Y-4636098D01*
X7454000Y-4625000D01*
X7454000Y-4350000D01*
X7451793Y-4338902D01*
X7445506Y-4329494D01*
X7432173Y-4316161D01*
X7433990Y-4311787D01*
X7434010Y-4288316D01*
X7425047Y-4266623D01*
X7416424Y-4257985D01*
X7423161Y-4255194D01*
X7430194Y-4248161D01*
X7434000Y-4238973D01*
X7434000Y-4229027D01*
X7434000Y-4161027D01*
X7430194Y-4151839D01*
X7423161Y-4144806D01*
X7413973Y-4141000D01*
X7404027Y-4141000D01*
X7336027Y-4141000D01*
X7326839Y-4144806D01*
X7319806Y-4151839D01*
X7316000Y-4161027D01*
X7316000Y-4170973D01*
X7316000Y-4217988D01*
X7279494Y-4254494D01*
X7273207Y-4263902D01*
X7271000Y-4275000D01*
X7271000Y-4462988D01*
X7061809Y-4672179D01*
X7067493Y-4658491D01*
X7067507Y-4641583D01*
X7061051Y-4625957D01*
X7049106Y-4613991D01*
X7033491Y-4607507D01*
X7016583Y-4607493D01*
X7000957Y-4613949D01*
X6988991Y-4625894D01*
X6982507Y-4641509D01*
X6982493Y-4658417D01*
X6988949Y-4674043D01*
X6996000Y-4681106D01*
X6996000Y-4830233D01*
X6995506Y-4829494D01*
X6579000Y-4412988D01*
X6579000Y-4300000D01*
X6576793Y-4288902D01*
X6570506Y-4279494D01*
X6532824Y-4241812D01*
X6534000Y-4238973D01*
X6534000Y-4229027D01*
X6534000Y-4161027D01*
X6530194Y-4151839D01*
X6523161Y-4144806D01*
X6513973Y-4141000D01*
X6504027Y-4141000D01*
X6436027Y-4141000D01*
X6426839Y-4144806D01*
X6419806Y-4151839D01*
X6416000Y-4161027D01*
X6416000Y-4170973D01*
X6416000Y-4172790D01*
X6413902Y-4173207D01*
X6404494Y-4179494D01*
X6379494Y-4204494D01*
X6375000Y-4211219D01*
X6370506Y-4204494D01*
X6345506Y-4179494D01*
X6336098Y-4173207D01*
X6325000Y-4171000D01*
X6309000Y-4171000D01*
X6309000Y-4161027D01*
X6305194Y-4151839D01*
X6298161Y-4144806D01*
X6288973Y-4141000D01*
X6279027Y-4141000D01*
X6211027Y-4141000D01*
X6201839Y-4144806D01*
X6194806Y-4151839D01*
X6191000Y-4161027D01*
X6191000Y-4170973D01*
X6191000Y-4238973D01*
X6192176Y-4241812D01*
X6179494Y-4254494D01*
X6173207Y-4263902D01*
X6171000Y-4275000D01*
X6171000Y-4350000D01*
X6173207Y-4361098D01*
X6179494Y-4370506D01*
X6192826Y-4383839D01*
X6191010Y-4388213D01*
X6190990Y-4411684D01*
X6199953Y-4433377D01*
X6216536Y-4449989D01*
X6216572Y-4450004D01*
X6200011Y-4466536D01*
X6191010Y-4488213D01*
X6190990Y-4511684D01*
X6199953Y-4533377D01*
X6216536Y-4549989D01*
X6216572Y-4550004D01*
X6200011Y-4566536D01*
X6191010Y-4588213D01*
X6191006Y-4592982D01*
X5859010Y-4924978D01*
X5859010Y-4613316D01*
X5850047Y-4591623D01*
X5833464Y-4575011D01*
X5811787Y-4566010D01*
X5788316Y-4565990D01*
X5766623Y-4574953D01*
X5750011Y-4591536D01*
X5741010Y-4613213D01*
X5740990Y-4636684D01*
X5749953Y-4658377D01*
X5766536Y-4674989D01*
X5788213Y-4683990D01*
X5811684Y-4684010D01*
X5833377Y-4675047D01*
X5849989Y-4658464D01*
X5858990Y-4636787D01*
X5859010Y-4613316D01*
X5859010Y-4924978D01*
X5816161Y-4967826D01*
X5811787Y-4966010D01*
X5788316Y-4965990D01*
X5766623Y-4974953D01*
X5750011Y-4991536D01*
X5741010Y-5013213D01*
X5741000Y-5024988D01*
X5604000Y-4887988D01*
X5604000Y-4825000D01*
X5601793Y-4813902D01*
X5601793Y-4813902D01*
X5595506Y-4804494D01*
X5529000Y-4737988D01*
X5529000Y-4600000D01*
X5526793Y-4588902D01*
X5520506Y-4579494D01*
X5479000Y-4537988D01*
X5479000Y-4300000D01*
X5476793Y-4288902D01*
X5470506Y-4279494D01*
X5409000Y-4217988D01*
X5409000Y-4161027D01*
X5405194Y-4151839D01*
X5398355Y-4145000D01*
X5631360Y-4145000D01*
X5955000Y-4468640D01*
X5955000Y-4586556D01*
X5950011Y-4591536D01*
X5941010Y-4613213D01*
X5940990Y-4636684D01*
X5949953Y-4658377D01*
X5966536Y-4674989D01*
X5988213Y-4683990D01*
X6011684Y-4684010D01*
X6033377Y-4675047D01*
X6049989Y-4658464D01*
X6058990Y-4636787D01*
X6059010Y-4613316D01*
X6050047Y-4591623D01*
X6045000Y-4586567D01*
X6045000Y-4450000D01*
X6041575Y-4432779D01*
X6031820Y-4418180D01*
X5681820Y-4068180D01*
X5667221Y-4058425D01*
X5650000Y-4055000D01*
X5325000Y-4055000D01*
X5307779Y-4058425D01*
X5293180Y-4068180D01*
X5181360Y-4180000D01*
X5128529Y-4180000D01*
X5110489Y-4172509D01*
X5089603Y-4172491D01*
X5070300Y-4180467D01*
X5055519Y-4195222D01*
X5049861Y-4208848D01*
X5029000Y-4187988D01*
X5029000Y-4187012D01*
X5133839Y-4082173D01*
X5138213Y-4083990D01*
X5161684Y-4084010D01*
X5183377Y-4075047D01*
X5199989Y-4058464D01*
X5208990Y-4036787D01*
X5209010Y-4013316D01*
X5200047Y-3991623D01*
X5183464Y-3975011D01*
X5161787Y-3966010D01*
X5138316Y-3965990D01*
X5116623Y-3974953D01*
X5100011Y-3991536D01*
X5099996Y-3991572D01*
X5083464Y-3975011D01*
X5061787Y-3966010D01*
X5038316Y-3965990D01*
X5016623Y-3974953D01*
X5000011Y-3991536D01*
X4999996Y-3991572D01*
X4983464Y-3975011D01*
X4961787Y-3966010D01*
X4938316Y-3965990D01*
X4916623Y-3974953D01*
X4900011Y-3991536D01*
X4899996Y-3991572D01*
X4883464Y-3975011D01*
X4861787Y-3966010D01*
X4838316Y-3965990D01*
X4816623Y-3974953D01*
X4800011Y-3991536D01*
X4799996Y-3991572D01*
X4783464Y-3975011D01*
X4761787Y-3966010D01*
X4738316Y-3965990D01*
X4716623Y-3974953D01*
X4715642Y-3975932D01*
X4713672Y-3971174D01*
X4706474Y-3963976D01*
X7847047Y-3963976D01*
X7847047Y-5878543D01*
M02*
