M48
;DRILL file {kicad (2014-jul-16 BZR unknown)-product} date Sun 08 Feb 2015 05:52:27 PM PST
;FORMAT={2:4/ absolute / inch / suppress leading zeros}
FMAT,2
INCH,TZ
T1C0.025
T2C0.030
T3C0.032
T4C0.032
T5C0.039
T6C0.040
T7C0.047
T8C0.050
T9C0.125
%
G90
G05
M72
T1
X43000Y-48250
X43500Y-52500
X43500Y-54750
X45250Y-52250
X45250Y-55000
X45500Y-42000
X46750Y-47500
X46750Y-53250
X47000Y-54500
X49500Y-41500
X49750Y-47000
X51000Y-41500
X51250Y-56000
X51250Y-57750
X51750Y-49500
X52000Y-45250
X52250Y-46250
X52250Y-48000
X52500Y-40250
X52500Y-43750
X53500Y-54750
X53750Y-50500
X54000Y-46500
X55750Y-51000
X56250Y-43500
X56250Y-52750
X56750Y-46250
X57500Y-57500
X57750Y-53750
X58000Y-49000
X59000Y-50000
X59000Y-51750
X59500Y-53750
X60500Y-43500
X61500Y-50000
X62000Y-53750
X63250Y-50500
X65750Y-53750
X66250Y-47500
X66750Y-46000
X67000Y-49500
X68250Y-45000
X68250Y-46000
X69000Y-53500
X69500Y-47500
X70250Y-46500
X72000Y-48750
X72000Y-53500
X73000Y-47500
X73500Y-53500
X74750Y-47500
X75000Y-50250
X75000Y-51750
X75000Y-53500
T2
X44250Y-47250
X44250Y-48250
X44250Y-50750
X44250Y-51750
X45000Y-47750
X45000Y-51250
X77000Y-53500
X77000Y-54500
T3
X44250Y-46000
X44250Y-49500
X44250Y-53250
X45250Y-46000
X45250Y-49500
X45250Y-53250
X47750Y-57250
X48750Y-57250
X49000Y-50000
X49000Y-55500
X50000Y-50000
X50000Y-55500
X65750Y-50750
X65750Y-55750
X66750Y-50750
X66750Y-55750
X67750Y-55750
X68750Y-55750
X69289Y-57500
X69750Y-55750
X70750Y-55750
X71211Y-57500
T4
X48000Y-42250
X48000Y-43250
X48000Y-44250
X48000Y-45250
X48000Y-46250
X48000Y-47250
X48000Y-48250
X48000Y-51250
X48000Y-52250
X48000Y-53250
X48000Y-54250
X51000Y-42250
X51000Y-43250
X51000Y-44250
X51000Y-45250
X51000Y-46250
X51000Y-47250
X51000Y-48250
X51000Y-51250
X51000Y-52250
X51000Y-53250
X51000Y-54250
X59750Y-51750
X59750Y-54750
X60750Y-51750
X60750Y-54750
X61750Y-51750
X61750Y-54750
X62750Y-51750
X62750Y-54750
X63750Y-51750
X63750Y-54750
X64750Y-51750
X64750Y-54750
X65750Y-51750
X65750Y-54750
X66750Y-51750
X66750Y-54750
X67750Y-51750
X67750Y-54750
X68750Y-51750
X68750Y-54750
X69750Y-51750
X69750Y-54750
X70750Y-51750
X70750Y-54750
X71750Y-51750
X71750Y-54750
X72750Y-51750
X72750Y-54750
T5
X54250Y-57250
T6
X40500Y-54000
X41138Y-47213
X41138Y-48213
X41138Y-49213
X41138Y-50213
X41138Y-51213
X41500Y-54000
X42138Y-47213
X42138Y-48213
X42138Y-49213
X42138Y-50213
X42138Y-51213
X42500Y-54000
X45000Y-40250
X45000Y-44250
X46500Y-40250
X46500Y-51250
X46500Y-55250
X46750Y-42250
X46750Y-46250
X47500Y-40250
X48500Y-40250
X49500Y-40250
X50500Y-40250
X51500Y-40250
X52250Y-52000
X52250Y-56000
X53500Y-42000
X53500Y-43000
X53500Y-44000
X53500Y-45000
X53500Y-46000
X53500Y-47000
X53500Y-48000
X53500Y-49000
X53750Y-52000
X53750Y-56000
X56000Y-52000
X56000Y-56000
X57500Y-52000
X57500Y-56000
X58000Y-46250
X58000Y-50250
X60000Y-46250
X60000Y-50250
X62500Y-42000
X62500Y-43000
X62500Y-44000
X62500Y-45000
X62500Y-46000
X62500Y-47000
X62500Y-48000
X62500Y-49000
X64750Y-42000
X64750Y-43000
X64750Y-44000
X64750Y-45000
X64750Y-46000
X64750Y-47000
X64750Y-48000
X64750Y-49000
X73750Y-42000
X73750Y-43000
X73750Y-44000
X73750Y-45000
X73750Y-46000
X73750Y-47000
X73750Y-48000
X73750Y-49000
X75500Y-44250
X75500Y-48250
X76750Y-49750
X76750Y-50750
X76750Y-51750
X77750Y-49750
X77750Y-50750
X77750Y-51750
T7
X77500Y-45220
X77500Y-47780
T8
X50250Y-57250
T9
X41339Y-41339
X41339Y-57087
X76772Y-41339
X76772Y-57087
T0
M30
