%FSLAX36Y36*%
G04 Gerber Fmt 3.6, Leading zero omitted, Abs format (unit inch)*
G04 Created by KiCad (PCBNEW (2014-jul-16 BZR unknown)-product) date Sun 08 Feb 2015 05:52:30 PM PST*
%MOIN*%
G01*
G04 APERTURE LIST*
%ADD10C,0.003937*%
%ADD11C,0.059100*%
%ADD12C,0.078700*%
%ADD13R,0.078700X0.078700*%
%ADD14C,0.060000*%
%ADD15R,0.068000X0.068000*%
%ADD16C,0.068000*%
%ADD17R,0.060000X0.060000*%
%ADD18O,0.068000X0.068000*%
%ADD19R,0.055000X0.055000*%
%ADD20C,0.055000*%
G04 APERTURE END LIST*
D10*
D11*
X6575000Y-5575000D03*
X6675000Y-5575000D03*
X6675000Y-5075000D03*
X6575000Y-5075000D03*
X4900000Y-5000000D03*
X5000000Y-5000000D03*
X4900000Y-5550000D03*
X5000000Y-5550000D03*
X4425000Y-4600000D03*
X4525000Y-4600000D03*
X4425000Y-4950000D03*
X4525000Y-4950000D03*
X4775000Y-5725000D03*
X4875000Y-5725000D03*
X4425000Y-5325000D03*
X4525000Y-5325000D03*
X6875000Y-5575000D03*
X6775000Y-5575000D03*
X6975000Y-5575000D03*
X7075000Y-5575000D03*
D12*
X5025000Y-5725000D03*
D13*
X5425000Y-5725000D03*
D14*
X7700000Y-5350000D03*
X7700000Y-5450000D03*
D15*
X4250000Y-5400000D03*
D16*
X4150000Y-5400000D03*
X4050000Y-5400000D03*
D17*
X4113780Y-4721260D03*
D14*
X4213780Y-4721260D03*
X4113780Y-4821260D03*
X4213780Y-4821260D03*
X4113780Y-4921260D03*
X4213780Y-4921260D03*
X4113780Y-5021260D03*
X4213780Y-5021260D03*
X4113780Y-5121260D03*
X4213780Y-5121260D03*
D15*
X4650000Y-4025000D03*
D16*
X4750000Y-4025000D03*
X4850000Y-4025000D03*
X4950000Y-4025000D03*
X5050000Y-4025000D03*
X5150000Y-4025000D03*
D15*
X5350000Y-4200000D03*
X6250000Y-4200000D03*
D16*
X5350000Y-4300000D03*
X5350000Y-4400000D03*
X5350000Y-4500000D03*
X5350000Y-4600000D03*
X5350000Y-4700000D03*
X5350000Y-4800000D03*
X5350000Y-4900000D03*
X6250000Y-4300000D03*
X6250000Y-4400000D03*
X6250000Y-4500000D03*
X6250000Y-4600000D03*
X6250000Y-4700000D03*
X6250000Y-4800000D03*
X6250000Y-4900000D03*
D15*
X6475000Y-4200000D03*
X7375000Y-4200000D03*
D16*
X6475000Y-4300000D03*
X6475000Y-4400000D03*
X6475000Y-4500000D03*
X6475000Y-4600000D03*
X6475000Y-4700000D03*
X6475000Y-4800000D03*
X6475000Y-4900000D03*
X7375000Y-4300000D03*
X7375000Y-4400000D03*
X7375000Y-4500000D03*
X7375000Y-4600000D03*
X7375000Y-4700000D03*
X7375000Y-4800000D03*
X7375000Y-4900000D03*
D15*
X7675000Y-4975000D03*
D18*
X7775000Y-4975000D03*
X7675000Y-5075000D03*
X7775000Y-5075000D03*
X7675000Y-5175000D03*
X7775000Y-5175000D03*
D16*
X4500000Y-4025000D03*
X4500000Y-4425000D03*
X4675000Y-4625000D03*
X4675000Y-4225000D03*
X4650000Y-5125000D03*
X4650000Y-5525000D03*
X5600000Y-5600000D03*
X5600000Y-5200000D03*
X6000000Y-5025000D03*
X6000000Y-4625000D03*
X5225000Y-5600000D03*
X5225000Y-5200000D03*
X5375000Y-5600000D03*
X5375000Y-5200000D03*
X5750000Y-5600000D03*
X5750000Y-5200000D03*
X7550000Y-4825000D03*
X7550000Y-4425000D03*
X5800000Y-5025000D03*
X5800000Y-4625000D03*
D13*
X7750000Y-4778000D03*
D12*
X7750000Y-4522000D03*
D19*
X4800000Y-4225000D03*
D20*
X4800000Y-4325000D03*
X4800000Y-4425000D03*
X4800000Y-4525000D03*
X4800000Y-4625000D03*
X4800000Y-4725000D03*
X4800000Y-4825000D03*
X5100000Y-4825000D03*
X5100000Y-4725000D03*
X5100000Y-4625000D03*
X5100000Y-4525000D03*
X5100000Y-4425000D03*
X5100000Y-4325000D03*
X5100000Y-4225000D03*
D14*
X4425000Y-4725000D03*
X4500000Y-4775000D03*
X4425000Y-4825000D03*
D19*
X4800000Y-5125000D03*
D20*
X4800000Y-5225000D03*
X4800000Y-5325000D03*
X4800000Y-5425000D03*
X5100000Y-5425000D03*
X5100000Y-5325000D03*
X5100000Y-5225000D03*
X5100000Y-5125000D03*
D14*
X4425000Y-5075000D03*
X4500000Y-5125000D03*
X4425000Y-5175000D03*
D20*
X6075000Y-5475000D03*
X6175000Y-5475000D03*
X6275000Y-5475000D03*
X6375000Y-5475000D03*
X6475000Y-5475000D03*
X6575000Y-5475000D03*
X6675000Y-5475000D03*
X6775000Y-5475000D03*
X6875000Y-5475000D03*
X6975000Y-5475000D03*
X7075000Y-5475000D03*
X7175000Y-5475000D03*
X7275000Y-5475000D03*
D19*
X5975000Y-5475000D03*
D20*
X7275000Y-5175000D03*
X7175000Y-5175000D03*
X7075000Y-5175000D03*
X6975000Y-5175000D03*
X6875000Y-5175000D03*
X6775000Y-5175000D03*
X6675000Y-5175000D03*
X6575000Y-5175000D03*
X6475000Y-5175000D03*
X6375000Y-5175000D03*
X6275000Y-5175000D03*
X6175000Y-5175000D03*
X6075000Y-5175000D03*
X5975000Y-5175000D03*
D11*
X6928900Y-5750000D03*
X7121100Y-5750000D03*
M02*
